<?xml version="1.0" encoding="UTF-8"?>
<svg version="1.1" xmlns="http://www.w3.org/2000/svg" width="1024" height="1024">
<path d="M0 0 C14.54036219 14.37951747 24.15681209 32.63594705 30 52 C30.52980469 53.42119141 30.52980469 53.42119141 31.0703125 54.87109375 C36.55863009 73.34228026 34.3667667 96.73946355 29 115 C28.67257812 116.18722656 28.34515625 117.37445312 28.0078125 118.59765625 C22.96479401 134.62856538 13.37196409 148.80032966 2 161 C1.4328125 161.64710938 0.865625 162.29421875 0.28125 162.9609375 C-19.24725713 184.18324372 -48.97228201 194.7237109 -77.140625 196.16015625 C-93.90792275 196.57752405 -111.30191156 194.0361939 -127 188 C-127.33 187.34 -127.66 186.68 -128 186 C-129.66139669 185.64132196 -131.32924995 185.31222291 -133 185 C-144.91293934 180.12210804 -153.76890101 171.69324363 -163 163 C-163.72445312 162.34128906 -164.44890625 161.68257812 -165.1953125 161.00390625 C-186.38577139 141.05742166 -195.22726734 112.61032934 -197.18359375 84.34765625 C-197.25549326 81.87346709 -197.16189584 79.47067128 -197 77 C-196.92007813 75.72382813 -196.84015625 74.44765625 -196.7578125 73.1328125 C-195.30251408 54.70110563 -189.83775602 38.14916185 -181 22 C-180.52949219 20.96746094 -180.05898437 19.93492187 -179.57421875 18.87109375 C-177.78994445 15.6168962 -175.67874739 13.55273652 -173 11 C-171.58407582 9.26621529 -170.1884096 7.51570764 -168.8125 5.75 C-151.83868491 -14.98962072 -126.40927159 -28.22259494 -100 -32 C-99.23300781 -32.12890625 -98.46601563 -32.2578125 -97.67578125 -32.390625 C-61.29331929 -37.65741949 -27.13957177 -23.31709688 0 0 Z M-130 6 C-130 55.17 -130 104.34 -130 155 C-121.42 155 -112.84 155 -104 155 C-104.07863281 151.10832031 -104.15726563 147.21664062 -104.23828125 143.20703125 C-104.27014014 139.40065274 -104.27955367 135.59482576 -104.28686523 131.78833008 C-104.30380666 129.16079599 -104.34376244 126.53329851 -104.40795898 123.90649414 C-104.97350786 99.68904751 -104.97350786 99.68904751 -98.43132019 92.58256531 C-95.75927434 90.15114134 -92.94935446 88.08863009 -90 86 C-87.95053396 83.8883058 -87.95053396 83.8883058 -86.4375 81.9375 C-83.45001698 78.41227004 -80.22152934 75.18265919 -76.9375 71.9375 C-69.16546208 64.83834155 -69.16546208 64.83834155 -64 56 C-62.66815168 55.66078185 -61.3346197 55.32814503 -60 55 C-58.38949612 53.53378738 -58.38949612 53.53378738 -56.9375 51.625 C-53.1680939 47.10171267 -49.05430079 43.01772901 -44.84375 38.90625 C-42.72355395 36.79164616 -40.75739231 34.58566736 -38.80859375 32.3125 C-34.31456383 27.12245397 -29.43741496 22.32928941 -24.5625 17.5 C-23.64017578 16.5821875 -22.71785156 15.664375 -21.76757812 14.71875 C-19.51400101 12.47684945 -17.25810925 10.237334 -15 8 C-15.495 7.01 -15.495 7.01 -16 6 C-20.41056424 5.80077368 -24.81868386 5.65641434 -29.23242188 5.56054688 C-30.73028216 5.52055233 -32.22783479 5.46613236 -33.72460938 5.39648438 C-42.63170019 4.81658043 -42.63170019 4.81658043 -50.81640625 7.74609375 C-52.85652476 9.73583896 -54.5226724 11.565739 -56 14 C-56 14.66 -56 15.32 -56 16 C-56.57975586 16.25523437 -57.15951172 16.51046875 -57.75683594 16.7734375 C-60.23015312 18.12584777 -61.89602109 19.63732524 -63.890625 21.625 C-64.59960938 22.33140625 -65.30859375 23.0378125 -66.0390625 23.765625 C-66.76867187 24.50296875 -67.49828125 25.2403125 -68.25 26 C-68.99507812 26.73734375 -69.74015625 27.4746875 -70.5078125 28.234375 C-71.56355469 29.29398437 -71.56355469 29.29398437 -72.640625 30.375 C-73.60790527 31.34566406 -73.60790527 31.34566406 -74.59472656 32.3359375 C-76.21506609 33.89166356 -76.21506609 33.89166356 -76 36 C-76.66 36 -77.32 36 -78 36 C-79.3641228 37.34937337 -79.3641228 37.34937337 -80.8125 39.1875 C-84.83610721 43.95590259 -89.24599605 48.27798618 -93.73168945 52.60620117 C-95.19058334 54.03482136 -96.5999677 55.51364992 -98 57 C-98 57.66 -98 58.32 -98 59 C-98.66 59 -99.32 59 -100 59 C-101.32 60.32 -102.64 61.64 -104 63 C-104 44.19 -104 25.38 -104 6 C-112.58 6 -121.16 6 -130 6 Z M-70 83 C-70.66 83.66 -71.32 84.32 -72 85 C-72 85.99 -72 86.98 -72 88 C-72.55171875 88.22429687 -73.1034375 88.44859375 -73.671875 88.6796875 C-76.71211744 90.40385183 -78.81425673 92.62515822 -81.25 95.125 C-82.14203125 96.03507813 -83.0340625 96.94515625 -83.953125 97.8828125 C-84.62859375 98.58148437 -85.3040625 99.28015625 -86 100 C-84.76751873 103.52910489 -83.55771197 105.78087432 -80.8125 108.3125 C-77.44082612 111.51488481 -74.4473464 114.91818867 -71.48046875 118.49609375 C-70.99191406 118.99238281 -70.50335938 119.48867188 -70 120 C-69.34 120 -68.68 120 -68 120 C-67.74605469 120.58265625 -67.49210937 121.1653125 -67.23046875 121.765625 C-65.86679667 124.24188033 -64.35774797 125.80520626 -62.3125 127.75 C-59.61995648 130.37003337 -57.06173621 133.01574183 -54.625 135.875 C-50.98973177 140.11614627 -47.03506264 143.99901742 -43.0390625 147.8984375 C-41 150 -41 150 -40 152 C-39.34 152 -38.68 152 -38 152 C-38 152.66 -38 153.32 -38 154 C-34.88045872 155.55977064 -31.57040616 155.12104126 -28.1484375 155.09765625 C-26.98738998 155.09553383 -26.98738998 155.09553383 -25.80288696 155.09336853 C-23.32688558 155.08776403 -20.85097412 155.07521083 -18.375 155.0625 C-16.69791797 155.05748558 -15.02083453 155.05292257 -13.34375 155.04882812 C-9.22913194 155.03779315 -5.11458122 155.02052554 -1 155 C-4.18981457 151.21586772 -7.37465198 147.50482885 -10.9375 144.0625 C-14.23050149 140.81958219 -17.27371307 137.43670112 -20.28515625 133.93359375 C-22.5004738 131.43568444 -24.8689817 129.11975011 -27.25 126.78125 C-29.70634849 124.28103815 -31.96309368 121.62319484 -34.25 118.96875 C-35.93798286 117.06976929 -37.68769734 115.27994012 -39.5 113.5 C-41.87224102 111.16974555 -44.09113517 108.77895594 -46.25 106.25 C-49.18275549 102.84166254 -52.30017069 99.65540981 -55.5 96.5 C-59.44251132 92.61171855 -63.15047466 88.64526441 -66.66015625 84.36328125 C-67.10230469 83.91339844 -67.54445313 83.46351563 -68 83 C-68.66 83 -69.32 83 -70 83 Z " fill="#0D3355" transform="translate(328,424)"/>
<path d="M0 0 C9.7830046 7.78063524 16.93495124 18.7702534 18.7890625 31.31640625 C20.17428529 48.93951845 17.23129692 64.03676599 6 78 C5.34 78 4.68 78 4 78 C4 78.66 4 79.32 4 80 C-7.72439716 88.94416327 -19.37578949 92.07984677 -34 91 C-42.45052895 89.32202416 -48.63616723 85.72102138 -55 80 C-54.98839844 80.91523437 -54.97679687 81.83046875 -54.96484375 82.7734375 C-54.95582031 83.96195313 -54.94679688 85.15046875 -54.9375 86.375 C-54.92589844 87.55835938 -54.91429687 88.74171875 -54.90234375 89.9609375 C-55 93 -55 93 -56 95 C-55.34 95.33 -54.68 95.66 -54 96 C-54.66 96 -55.32 96 -56 96 C-55.83628906 97.26714844 -55.67257812 98.53429687 -55.50390625 99.83984375 C-54.92021092 105.09310173 -54.88714051 110.28250085 -54.9375 115.5625 C-54.94201172 116.47580078 -54.94652344 117.38910156 -54.95117188 118.33007812 C-54.9628126 120.55345738 -54.97916149 122.77669121 -55 125 C-58.97880228 125.19585353 -62.95805156 125.3802867 -66.9375 125.5625 C-68.07380859 125.61857422 -69.21011719 125.67464844 -70.38085938 125.73242188 C-71.46044922 125.78076172 -72.54003906 125.82910156 -73.65234375 125.87890625 C-74.65257568 125.9260376 -75.65280762 125.97316895 -76.68334961 126.02172852 C-79 126 -79 126 -80 125 C-80.09619441 123.30441297 -80.12187659 121.6047916 -80.12025452 119.90647888 C-80.12162918 118.80285004 -80.12300385 117.69922119 -80.12442017 116.56214905 C-80.12082489 115.34079758 -80.11722961 114.11944611 -80.11352539 112.86108398 C-80.11367142 111.58322021 -80.11381744 110.30535645 -80.1139679 108.98876953 C-80.11425585 105.47446409 -80.1083594 101.9601925 -80.10139394 98.44589496 C-80.09516012 94.77700644 -80.09455658 91.10811723 -80.09336853 87.43922424 C-80.0902553 80.48709565 -80.08204202 73.5349827 -80.07201904 66.58286101 C-80.06085766 58.6700522 -80.05534739 50.75724266 -80.05032361 42.84442794 C-80.0398594 26.56294135 -80.02151402 10.28147631 -80 -6 C-71.75 -6 -63.5 -6 -55 -6 C-55.33 -2.7 -55.66 0.6 -56 4 C-55.38253906 3.54109375 -54.76507812 3.0821875 -54.12890625 2.609375 C-37.1513786 -9.69093422 -18.01259122 -12.35149113 0 0 Z M-49 21 C-54.49520775 27.98812546 -56.55969281 35.77223197 -56.3125 44.609375 C-55.28532755 52.46724421 -52.1086593 59.83438257 -46 65 C-39.54589718 69.37861333 -33.01348727 70.73272125 -25.375 69.3125 C-18.18271646 67.43732487 -13.09449294 63.08738773 -9 57 C-4.82456108 48.86805903 -4.90263142 39.48338165 -7.0625 30.75 C-8.81296161 25.56561849 -11.88674633 21.58040035 -16 18 C-16.99 17.67 -17.98 17.34 -19 17 C-19.66 16.34 -20.32 15.68 -21 15 C-24.42991538 13.85669487 -27.1986416 13.79618349 -30.8125 13.75 C-32.01519531 13.72421875 -33.21789062 13.6984375 -34.45703125 13.671875 C-40.32245542 14.21508959 -44.77685548 16.993427 -49 21 Z " fill="#1C1D1A" transform="translate(861,476)"/>
<path d="M0 0 C0 4.12934874 -2.21530907 5.69544053 -4.9375 8.5 C-8.59626355 12.37008312 -12.1103896 16.27249598 -15.4375 20.4375 C-19.79741306 25.85412448 -24.47475879 30.91938296 -29.21484375 36 C-31.96846264 38.95339665 -34.63726917 41.9721223 -37.27734375 45.02734375 C-40.1315673 48.29578568 -43.06249603 51.49518795 -45.984375 54.703125 C-46.98210937 55.84007812 -46.98210937 55.84007812 -48 57 C-48.60328125 57.67546875 -49.2065625 58.3509375 -49.828125 59.046875 C-51.16976638 60.8956532 -51.16976638 60.8956532 -50.9765625 62.92578125 C-49.59238875 65.86576629 -47.61652622 67.84100805 -45.375 70.1875 C-42.30643136 73.45619269 -39.33252664 76.73373954 -36.625 80.3125 C-33.1139941 84.94139693 -29.33724936 89.31387888 -25.54125977 93.70849609 C-21.75866829 98.09453601 -18.08158649 102.55405697 -14.4453125 107.0625 C-12.51914253 109.37636553 -10.56102207 111.63192013 -8.5546875 113.875 C-7.95712646 114.54732666 -7.35956543 115.21965332 -6.74389648 115.91235352 C-5.55906581 117.24066415 -4.36609785 118.56177042 -3.16430664 119.87475586 C-2.62410889 120.48198486 -2.08391113 121.08921387 -1.52734375 121.71484375 C-1.03999756 122.25230225 -0.55265137 122.78976074 -0.05053711 123.34350586 C1 125 1 125 1 129 C-3.18185942 128.98053174 -7.36171585 128.92867611 -11.54272461 128.84741211 C-12.96350702 128.82428497 -14.38445958 128.80984874 -15.80541992 128.80444336 C-17.85442466 128.79511339 -19.9007735 128.75404834 -21.94921875 128.70703125 C-23.17987061 128.6913208 -24.41052246 128.67561035 -25.6784668 128.65942383 C-29.8758439 127.82611875 -31.28281724 126.22876868 -34 123 C-34.82757813 122.06285156 -35.65515625 121.12570312 -36.5078125 120.16015625 C-37.38326404 119.13019368 -38.2555328 118.09751936 -39.125 117.0625 C-39.59728027 116.50256348 -40.06956055 115.94262695 -40.55615234 115.36572266 C-44.46963287 110.69571362 -48.25163963 105.92925288 -51.98999023 101.1184082 C-55.69353301 96.35651897 -59.52492058 91.71830769 -63.41796875 87.109375 C-65 85 -65 85 -65 83 C-65.66 83 -66.32 83 -67 83 C-69.97 79.04 -72.94 75.08 -76 71 C-76.33 89.81 -76.66 108.62 -77 128 C-81.21629134 130.10814567 -83.39790775 130.17700355 -88 130 C-88 129.34 -88 128.68 -88 128 C-93.28 128 -98.56 128 -104 128 C-104.86988854 123.65055731 -105.03595522 122.02871475 -104 118 C-103.67 118 -103.34 118 -103 118 C-103 108.43 -103 98.86 -103 89 C-103.33 89 -103.66 89 -104 89 C-104 86.33333333 -104 83.66666667 -104 81 C-104.08262548 79.63789742 -104.16772755 78.27594489 -104.25390625 76.9140625 C-105.32811578 58.90859201 -105.32811578 58.90859201 -104 50 C-103.67 50 -103.34 50 -103 50 C-102.97096108 45.91668161 -102.95318811 41.8333898 -102.9375 37.75 C-102.92912109 36.59113281 -102.92074219 35.43226563 -102.91210938 34.23828125 C-102.90727539 32.56572266 -102.90727539 32.56572266 -102.90234375 30.859375 C-102.89710693 29.83295898 -102.89187012 28.80654297 -102.88647461 27.74902344 C-102.98663049 25.32374344 -103.30076922 23.31302639 -104 21 C-103.67 21 -103.34 21 -103 21 C-102.67 14.4 -102.34 7.8 -102 1 C-93.09 1 -84.18 1 -75 1 C-74.67 1.66 -74.34 2.32 -74 3 C-74.66 3 -75.32 3 -76 3 C-76.33 18.84 -76.66 34.68 -77 51 C-75.515 51.495 -75.515 51.495 -74 52 C-74.99 52 -75.98 52 -77 52 C-76.67 52.99 -76.34 53.98 -76 55 C-69.84579474 48.40867362 -63.90328481 41.74347506 -58.24609375 34.71484375 C-55.9116941 31.89326505 -53.48009402 29.19409288 -51 26.5 C-42.61822858 17.65517642 -42.61822858 17.65517642 -35.71606445 7.69848633 C-33.17583772 3.57597034 -31.45405633 1.35149078 -26.62670898 0.18457031 C-22.57627781 -0.11060074 -18.61804672 -0.14721734 -14.5625 -0.0625 C-13.14907375 -0.06557865 -11.73565021 -0.07270346 -10.32226562 -0.08398438 C-6.88029464 -0.10271637 -3.44150268 -0.06644564 0 0 Z " fill="#1A1B18" transform="translate(505,437)"/>
<path d="M0 0 C0.33 0.66 0.66 1.32 1 2 C7.6 2 14.2 2 21 2 C21 1.34 21 0.68 21 0 C21.99 0.33 22.98 0.66 24 1 C23.99476318 1.92184082 23.98952637 2.84368164 23.98413086 3.79345703 C23.86694137 27.88108984 24.23820601 51.92447356 25 76 C26.90560595 73.95231437 28.80889057 71.90254985 30.7109375 69.8515625 C31.24452881 69.27865479 31.77812012 68.70574707 32.32788086 68.11547852 C36.33632135 63.78808025 40.07099287 59.31253723 43.76171875 54.7109375 C47.00979956 50.77696179 50.46253471 47.04972788 53.93359375 43.3125 C56.11369637 40.98197309 56.11369637 40.98197309 58 38 C60.88916016 37.56762695 60.88916016 37.56762695 64.5390625 37.48828125 C65.84101562 37.45283203 67.14296875 37.41738281 68.484375 37.38085938 C69.86457809 37.35775769 71.24478657 37.33497536 72.625 37.3125 C74.01305352 37.27933555 75.40107607 37.2448467 76.7890625 37.20898438 C80.19262707 37.12625885 83.5959259 37.05718743 87 37 C82.61171671 46.11717124 74.69604567 53.47755251 67.81713867 60.78857422 C63.67489226 65.21273451 59.78723431 69.76595711 56 74.5 C53.70584818 77.36768977 51.3574436 80.18416459 49 83 C49.35078613 83.42595459 49.70157227 83.85190918 50.06298828 84.29077148 C51.13071943 85.58730217 52.19842523 86.88385374 53.26611328 88.18041992 C54.52211625 89.70547212 55.77830595 91.23037054 57.03466797 92.75512695 C60.23573436 96.64054556 63.43428817 100.52794707 66.625 104.421875 C67.79147829 105.84390455 68.95814259 107.26578153 70.125 108.6875 C70.69637695 109.38423828 71.26775391 110.08097656 71.85644531 110.79882812 C74.71416032 114.27087892 77.59970041 117.71279699 80.546875 121.109375 C81.10745605 121.75559814 81.66803711 122.40182129 82.24560547 123.06762695 C83.30764612 124.28641169 84.37417597 125.50130351 85.44580078 126.71166992 C89 130.78294347 89 130.78294347 89 133 C87.79601562 133.06058594 86.59203125 133.12117187 85.3515625 133.18359375 C83.77602923 133.26799732 82.20050904 133.35264541 80.625 133.4375 C79.8309375 133.47681641 79.036875 133.51613281 78.21875 133.55664062 C73.97398779 133.68893404 73.97398779 133.68893404 70 135 C70 134.34 70 133.68 70 133 C69.34515625 133.16242188 68.6903125 133.32484375 68.015625 133.4921875 C64.61389709 133.96304814 62.33358172 133.91063696 59 133 C54.90249982 129.4332641 51.73307763 125.3627795 48.49951172 121.01513672 C46.54498124 118.38851761 44.51968733 115.82134381 42.49023438 113.25244141 C41.56575046 112.07723391 40.64856365 110.89623389 39.74023438 109.70849609 C37.04706689 106.20302116 34.13568632 103.10846682 31 100 C30.33333333 98.66666667 29.66666667 97.33333333 29 96 C26.96682993 94.26574227 26.96682993 94.26574227 25 93 C23.74916155 96.75251536 23.8953493 100.22758122 23.9375 104.1328125 C23.94128662 104.9252536 23.94507324 105.7176947 23.94897461 106.53414917 C23.96119229 109.06448792 23.9798307 111.59471287 24 114.125 C24.02648067 117.46093422 24.04652059 120.79681335 24.0625 124.1328125 C24.07079834 124.90569611 24.07909668 125.67857971 24.08764648 126.47488403 C24.09620395 128.31680119 24.05334389 130.15883557 24 132 C23 133 23 133 20.86694336 133.11352539 C19.95050049 133.10828857 19.03405762 133.10305176 18.08984375 133.09765625 C17.10048828 133.09443359 16.11113281 133.09121094 15.09179688 133.08789062 C14.05087891 133.07951172 13.00996094 133.07113281 11.9375 133.0625 C10.89271484 133.05798828 9.84792969 133.05347656 8.77148438 133.04882812 C6.1809334 133.03699913 3.59049441 133.02051689 1 133 C0.505 133.99 0.505 133.99 0 135 C-2.00903813 133.34518701 -2.92308006 132.49723244 -3.328125 129.87890625 C-3.30234375 129.11449219 -3.2765625 128.35007812 -3.25 127.5625 C-3.22679687 126.41974609 -3.22679687 126.41974609 -3.203125 125.25390625 C-3.00665883 123.07388739 -2.59405998 121.10316396 -2 119 C-2.33 119 -2.66 119 -3 119 C-3 90 -3 61 -3 32 C-2.67 32 -2.34 32 -2 32 C-1.97494385 31.06615479 -1.9498877 30.13230957 -1.92407227 29.17016602 C-1.82913072 25.71674811 -1.72988742 22.2635104 -1.62768555 18.81030273 C-1.58428187 17.31360731 -1.54261087 15.81686061 -1.50268555 14.32006836 C-1.44511384 12.17285688 -1.38138284 10.02590479 -1.31640625 7.87890625 C-1.27974854 6.5854126 -1.24309082 5.29191895 -1.20532227 3.95922852 C-1 1 -1 1 0 0 Z M-2 45 C-2 47.31 -2 49.62 -2 52 C-1.67 52 -1.34 52 -1 52 C-1 49.69 -1 47.38 -1 45 C-1.33 45 -1.66 45 -2 45 Z M23 89 C24 91 24 91 24 91 Z " fill="#1C1C19" transform="translate(683,432)"/>
<path d="M0 0 C7.96407657 5.89399168 12.27397709 12.72880664 15.125 22.25 C15.84752926 27.84016969 15.91830203 33.37010101 15.9375 39 C15.96028922 40.57001522 15.9849777 42.14000391 16.01147461 43.70996094 C16.08437982 48.55663295 16.10790853 53.40285971 16.125 58.25 C16.13326207 59.8476573 16.14172371 61.44531359 16.15039062 63.04296875 C16.19483018 72.11239419 16.18582431 81.1806269 16.125 90.25 C14.805 90.58 13.485 90.91 12.125 91.25 C12.125 91.91 12.125 92.57 12.125 93.25 C10.805 93.25 9.485 93.25 8.125 93.25 C8.125 92.59 8.125 91.93 8.125 91.25 C2.515 91.25 -3.095 91.25 -8.875 91.25 C-8.875 88.28 -8.875 85.31 -8.875 82.25 C-9.34808594 82.70890625 -9.82117188 83.1678125 -10.30859375 83.640625 C-19.25982932 91.94625489 -27.83966165 94.48796697 -39.91796875 94.421875 C-43.89177075 94.19090104 -47.68202076 93.45279916 -51.5625 92.58984375 C-54.02687988 92.05018011 -54.02687988 92.05018011 -56.875 93.25 C-56.875 92.26 -56.875 91.27 -56.875 90.25 C-58.71297376 88.65075992 -58.71297376 88.65075992 -61.0625 87.125 C-68.31447549 81.65181095 -70.77750049 76.08208595 -72.1875 67.1875 C-72.43434684 65.21046062 -72.66977575 63.23179239 -72.875 61.25 C-72.215 61.25 -71.555 61.25 -70.875 61.25 C-70.83375 60.115625 -70.7925 58.98125 -70.75 57.8125 C-69.92219531 51.15458511 -65.91998103 46.15555051 -61.125 41.6875 C-58.875 40.25 -58.875 40.25 -56.875 40.25 C-56.545 39.59 -56.215 38.93 -55.875 38.25 C-41.13686537 33.03803699 -24.27843235 34.06112958 -8.875 34.25 C-9.24611142 32.16212114 -9.64793679 30.07968727 -10.0625 28 C-10.28292969 26.83984375 -10.50335937 25.6796875 -10.73046875 24.484375 C-12.0842451 20.65868621 -13.5101505 19.42816212 -16.875 17.25 C-22.88027136 14.5203312 -29.53612453 14.12536029 -35.75 16.4375 C-39.17751153 18.42545669 -40.33021802 19.64550871 -41.875 23.25 C-42.23079811 24.91201582 -42.56750998 26.57837242 -42.875 28.25 C-43.84324707 28.28758423 -43.84324707 28.28758423 -44.83105469 28.32592773 C-47.76255894 28.44214433 -50.69376217 28.56475442 -53.625 28.6875 C-54.64078125 28.72681641 -55.6565625 28.76613281 -56.703125 28.80664062 C-57.6828125 28.84853516 -58.6625 28.89042969 -59.671875 28.93359375 C-60.57260742 28.97025146 -61.47333984 29.00690918 -62.40136719 29.04467773 C-64.67096339 29.23306407 -66.69062887 29.62366501 -68.875 30.25 C-67.53264901 18.589578 -64.73975598 9.67921888 -55.484375 2.0078125 C-40.1678858 -8.31018172 -15.89600294 -9.82662 0 0 Z M-42.875 55.25 C-45.13719233 59.04464519 -45.875 61.51858194 -45.875 65.9375 C-44.6772265 69.9051247 -43.32627517 71.06138648 -39.875 73.25 C-34.73598875 75.81950563 -27.31362581 74.9809322 -21.96875 73.37890625 C-16.17531372 70.71776459 -13.03731583 67.75855016 -9.875 62.25 C-8.7172494 58.77674819 -8.80633348 55.88932552 -8.875 52.25 C-9.65746094 52.25 -10.43992187 52.25 -11.24609375 52.25 C-20.875 52.25 -20.875 52.25 -24.26171875 52.14453125 C-25.69529872 52.11647423 -27.12889348 52.08916584 -28.5625 52.0625 C-29.27083984 52.03736328 -29.97917969 52.01222656 -30.70898438 51.98632812 C-35.49986858 51.91997239 -38.74252471 52.56327057 -42.875 55.25 Z " fill="#1C1D1A" transform="translate(648.875,473.75)"/>
<path d="M0 0 C-0.33 7.26 -0.66 14.52 -1 22 C-9 22 -9 22 -11 21 C-11.33 21.66 -11.66 22.32 -12 23 C-13.03125 23.12375 -14.0625 23.2475 -15.125 23.375 C-20.38412309 24.22324566 -24.10919404 25.69012359 -27.48046875 29.80859375 C-34.92221299 41.70229055 -33.25195209 57.3615668 -33.125 70.8125 C-33.1149448 72.68033371 -33.10582347 74.5481727 -33.09765625 76.41601562 C-33.0758562 80.94414309 -33.04146802 85.4720117 -33 90 C-32.34 90.33 -31.68 90.66 -31 91 C-32 94 -32 94 -34.125 95.25 C-37.69966583 96.18252152 -40.40516483 95.70486964 -44 95 C-44 95.66 -44 96.32 -44 97 C-44.66 96.67 -45.32 96.34 -46 96 C-47.47668337 95.9047301 -48.95775457 95.87014041 -50.4375 95.875 C-51.21996094 95.87242187 -52.00242187 95.86984375 -52.80859375 95.8671875 C-55.17895347 95.91617452 -55.17895347 95.91617452 -58 97 C-58.33 96.01 -58.66 95.02 -59 94 C-59.66 93.67 -60.32 93.34 -61 93 C-60.67386719 92.14148438 -60.34773437 91.28296875 -60.01171875 90.3984375 C-58.97608135 86.91965548 -58.76526592 84.24055435 -58.8125 80.625 C-58.82796875 79.40167969 -58.8434375 78.17835938 -58.859375 76.91796875 C-59.04702233 71.68990565 -59.42838405 66.48894009 -59.87890625 61.27734375 C-60.06989448 57.80680268 -59.83134719 54.453557 -59.53125 50.9921875 C-58.88171324 43.38607357 -58.88850164 35.81552806 -58.9375 28.1875 C-58.94253316 26.80143394 -58.9470928 25.41536607 -58.95117188 24.02929688 C-58.96282047 20.68615025 -58.97917571 17.34309989 -59 14 C-59.66 13.67 -60.32 13.34 -61 13 C-60.34 13 -59.68 13 -59 13 C-59 8.71 -59 4.42 -59 0 C-50.75 0 -42.5 0 -34 0 C-33.67 3.63 -33.34 7.26 -33 11 C-32.0925 9.948125 -31.185 8.89625 -30.25 7.8125 C-23.13723711 0.77129408 -9.7448432 -4.8724216 0 0 Z " fill="#1C1C19" transform="translate(574,470)"/>
<path d="M0 0 C0.66 0 1.32 0 2 0 C2 0.99 2 1.98 2 3 C2.5775 2.67 3.155 2.34 3.75 2 C6 1 6 1 10 1 C10 1.66 10 2.32 10 3 C10.60328125 2.91621094 11.2065625 2.83242188 11.828125 2.74609375 C12.62734375 2.64425781 13.4265625 2.54242188 14.25 2.4375 C15.03890625 2.33308594 15.8278125 2.22867187 16.640625 2.12109375 C19.01979487 1.99898404 20.72206416 2.3758792 23 3 C23.11571833 15.20416378 23.20462632 27.40819762 23.25906086 39.61279774 C23.28518342 45.27957818 23.32063048 50.94598402 23.37719727 56.61254883 C23.43142145 62.07849 23.46140049 67.5440703 23.47438622 73.01025963 C23.48364331 75.09836194 23.50171986 77.18644392 23.52865028 79.27439308 C23.56481283 82.19353948 23.56995069 85.11118418 23.56762695 88.03051758 C23.58560333 88.89870117 23.60357971 89.76688477 23.62210083 90.66137695 C23.60127258 93.07063293 23.60127258 93.07063293 23 97 C20.46452332 99.06059265 20.46452332 99.06059265 18 100 C18 99.34 18 98.68 18 98 C17.030625 98.185625 16.06125 98.37125 15.0625 98.5625 C10.61586794 99.21856047 6.41915017 98.65134866 2 98 C1.505 98.99 1.505 98.99 1 100 C1 99.34 1 98.68 1 98 C0.34 98 -0.32 98 -1 98 C-1.76738441 76.40098622 -2.12575205 54.8065794 -2.17724609 33.19381714 C-2.1840883 30.60390109 -2.19434847 28.01399185 -2.20800781 25.42410278 C-2.22584108 21.75792994 -2.23016627 18.09199236 -2.23046875 14.42578125 C-2.23761398 13.3149115 -2.24475922 12.20404175 -2.25212097 11.05950928 C-2.24908463 10.03996155 -2.24604828 9.02041382 -2.24291992 7.9699707 C-2.24505745 6.63298882 -2.24505745 6.63298882 -2.24723816 5.26899719 C-2 3 -2 3 0 0 Z " fill="#1C1C19" transform="translate(894,467)"/>
<path d="M0 0 C3.87911368 3.14023488 4.94693568 5.54580422 5.5 10.375 C5.91867059 16.02705295 5.13521067 18.69104967 1.625 23.125 C-2.18025473 26.29604561 -6.47095556 27.26511556 -11.375 27.125 C-17.23932678 25.43527872 -20.07800373 23.0704944 -23.375 18.125 C-25.05488528 13.40032264 -24.07761828 9.73833127 -22.390625 5.17578125 C-20.50360057 1.36544346 -17.63438631 -0.16021317 -14.0625 -2.1875 C-8.71087518 -3.5565203 -4.68532354 -2.60295752 0 0 Z " fill="#1D1E1A" transform="translate(912.375,432.875)"/>
<path d="M0 0 C4.1117256 -0.02465746 8.22342278 -0.04283959 12.33520508 -0.05493164 C13.73495228 -0.0599708 15.1346942 -0.06680216 16.53442383 -0.07543945 C18.54245777 -0.0875232 20.55052957 -0.09269807 22.55859375 -0.09765625 C24.37315063 -0.10551147 24.37315063 -0.10551147 26.22436523 -0.11352539 C29 0 29 0 30 1 C30.12272849 2.59513893 30.17781043 4.19554932 30.20532227 5.79516602 C30.22526749 6.81614883 30.24521271 7.83713165 30.26576233 8.88905334 C30.28247482 9.9994548 30.29918732 11.10985626 30.31640625 12.25390625 C30.33718735 13.38448959 30.35796844 14.51507294 30.37937927 15.67991638 C30.44499797 19.30737985 30.50381677 22.93491833 30.5625 26.5625 C30.60567351 29.01498186 30.6492874 31.467456 30.69335938 33.91992188 C30.80069184 39.94653427 30.9024349 45.97322201 31 52 C31.99 52 32.98 52 34 52 C34 52.99 34 53.98 34 55 C33.34 55 32.68 55 32 55 C31.34 56.32 30.68 57.64 30 59 C29.01 59 28.02 59 27 59 C27 40.52 27 22.04 27 3 C18.75 2.67 10.5 2.34 2 2 C2 51.17 2 100.34 2 151 C10.58 151 19.16 151 28 151 C28 151.66 28 152.32 28 153 C23.52084672 153.02886338 19.04171709 153.04675187 14.5625 153.0625 C13.28310547 153.07087891 12.00371094 153.07925781 10.68554688 153.08789062 C9.47060547 153.09111328 8.25566406 153.09433594 7.00390625 153.09765625 C5.31503296 153.10551147 5.31503296 153.10551147 3.59204102 153.11352539 C1 153 1 153 0 152 C-0.09666937 150.03838396 -0.12187097 148.07323355 -0.12025452 146.10923767 C-0.12162918 144.82891159 -0.12300385 143.54858551 -0.12442017 142.22946167 C-0.12088055 140.79742409 -0.11724573 139.36538674 -0.11352539 137.93334961 C-0.11324353 136.43568422 -0.11340124 134.9380187 -0.1139679 133.44035339 C-0.11425591 129.36201828 -0.10835864 125.28371233 -0.10139394 121.20538402 C-0.09516095 116.94792372 -0.09455665 112.69046282 -0.09336853 108.43299866 C-0.09025505 100.36526813 -0.08204144 92.29755109 -0.07201904 84.22982651 C-0.06085842 75.04739221 -0.05534758 65.86495728 -0.05032361 56.68251789 C-0.03985884 37.7883376 -0.02225907 18.89416988 0 0 Z " fill="#0F253B" transform="translate(196,428)"/>
<path d="M0 0 C7.26 0 14.52 0 22 0 C22 3.96 22 7.92 22 12 C21.67 12 21.34 12 21 12 C21 8.37 21 4.74 21 1 C14.4 1 7.8 1 1 1 C1.0721875 3.38089844 1.144375 5.76179688 1.21875 8.21484375 C1.98538299 35.60281937 2.08791714 62.97850077 2.0625 90.375 C2.06164398 91.30420635 2.06078796 92.2334127 2.05990601 93.19077682 C2.04843048 104.79387271 2.02745938 116.39693158 2 128 C8.27 128 14.54 128 21 128 C21 113.81 21 99.62 21 85 C21.33 85 21.66 85 22 85 C22 99.85 22 114.7 22 130 C14.74 130.33 7.48 130.66 0 131 C0 87.77 0 44.54 0 0 Z " fill="#050604" transform="translate(782,471)"/>
<path d="M0 0 C0.33 0 0.66 0 1 0 C1 41.58 1 83.16 1 126 C8.59 126 16.18 126 24 126 C24 106.53 24 87.06 24 67 C26 69 26 69 26.20254517 71.44241333 C26.16923599 72.98129715 26.16923599 72.98129715 26.13525391 74.55126953 C26.11508209 75.71232208 26.09491028 76.87337463 26.0741272 78.0696106 C26.04193085 79.32796722 26.0097345 80.58632385 25.9765625 81.8828125 C25.95153656 83.16735321 25.92651062 84.45189392 25.90072632 85.77536011 C25.8340514 89.19178517 25.75516452 92.60782401 25.67376709 96.02392578 C25.59286989 99.50928921 25.52347564 102.99487932 25.453125 106.48046875 C25.31336702 113.32057925 25.16071187 120.16035065 25 127 C21.20960634 129.12999997 18.34263862 129.16702456 14 129 C14 128.34 14 127.68 14 127 C8.72 127 3.44 127 -2 127 C-2.86988854 122.65055731 -3.03595522 121.02871475 -2 117 C-1.67 117 -1.34 117 -1 117 C-1 107.43 -1 97.86 -1 88 C-1.33 88 -1.66 88 -2 88 C-2 85.33333333 -2 82.66666667 -2 80 C-2.08262548 78.63789742 -2.16772755 77.27594489 -2.25390625 75.9140625 C-3.32811578 57.90859201 -3.32811578 57.90859201 -2 49 C-1.67 49 -1.34 49 -1 49 C-0.97096108 44.91668161 -0.95318811 40.8333898 -0.9375 36.75 C-0.92912109 35.59113281 -0.92074219 34.43226563 -0.91210938 33.23828125 C-0.90727539 31.56572266 -0.90727539 31.56572266 -0.90234375 29.859375 C-0.89710693 28.83295898 -0.89187012 27.80654297 -0.88647461 26.74902344 C-0.98663049 24.32374344 -1.30076922 22.31302639 -2 20 C-1.67 20 -1.34 20 -1 20 C-0.67 13.4 -0.34 6.8 0 0 Z " fill="#45473F" transform="translate(403,438)"/>
<path d="M0 0 C0.66 0 1.32 0 2 0 C2 0.99 2 1.98 2 3 C2.5775 2.67 3.155 2.34 3.75 2 C6 1 6 1 10 1 C10 1.66 10 2.32 10 3 C10.60328125 2.91621094 11.2065625 2.83242188 11.828125 2.74609375 C12.62734375 2.64425781 13.4265625 2.54242188 14.25 2.4375 C15.03890625 2.33308594 15.8278125 2.22867187 16.640625 2.12109375 C19 2 19 2 23 3 C22.67 33.03 22.34 63.06 22 94 C21.34 94 20.68 94 20 94 C20 64.63 20 35.26 20 5 C13.73 5 7.46 5 1 5 C1 6.98 1 8.96 1 11 C0.34 11 -0.32 11 -1 11 C-2.25 3.375 -2.25 3.375 0 0 Z " fill="#0C0D0A" transform="translate(894,467)"/>
<path d="M0 0 C0.66 0.33 1.32 0.66 2 1 C-3.01901212 6.91949968 -8.34162459 12.43702762 -13.875 17.875 C-15.39550816 19.37008161 -16.91385411 20.86736644 -18.4296875 22.3671875 C-19.09210449 23.01800293 -19.75452148 23.66881836 -20.43701172 24.33935547 C-22.08544452 25.93142515 -22.08544452 25.93142515 -23 28 C-23.66 28 -24.32 28 -25 28 C-25.2160791 28.54205078 -25.4321582 29.08410156 -25.65478516 29.64257812 C-27.46670531 32.81787777 -29.934542 35.18085717 -32.5234375 37.71875 C-33.06602203 38.25850464 -33.60860657 38.79825928 -34.16763306 39.35437012 C-35.89876928 41.07434694 -37.63672291 42.78724332 -39.375 44.5 C-40.53691857 45.65187969 -41.6983819 46.80421877 -42.859375 47.95703125 C-44.99767866 50.07903598 -47.13857524 52.19834578 -49.28271484 54.31445312 C-51.52974459 56.53523724 -53.76905995 58.76307531 -56 61 C-55.4234559 57.59986814 -54.39002339 56.07329515 -51.875 53.75 C-49.37695667 51.36298081 -47.04425216 48.95002528 -44.8125 46.3125 C-41.09240792 41.96954847 -37.02925215 37.99837813 -32.91137695 34.03637695 C-31.57130544 32.72704788 -30.28096794 31.36720716 -29 30 C-29 29.34 -29 28.68 -29 28 C-28.236875 27.566875 -27.47375 27.13375 -26.6875 26.6875 C-23.65604482 24.78402814 -22.76262409 23.04453252 -21 20 C-20.01 19.67 -19.02 19.34 -18 19 C-16.48968985 17.510147 -16.48968985 17.510147 -15 15.625 C-10.32330298 10.09342288 -5.15931384 5.0753467 0 0 Z " fill="#0D233B" transform="translate(285,460)"/>
<path d="M0 0 C0.66 0.33 1.32 0.66 2 1 C2.33 17.83 2.66 34.66 3 52 C3.99 52 4.98 52 6 52 C6 52.99 6 53.98 6 55 C5.34 55 4.68 55 4 55 C3.34 56.32 2.68 57.64 2 59 C1.01 59 0.02 59 -1 59 C-1.0231666 51.75032602 -1.04093714 44.50066003 -1.05181217 37.25095654 C-1.05703154 33.8846576 -1.06411203 30.51838398 -1.07543945 27.15209961 C-1.08753899 23.28238245 -1.09323604 19.41270134 -1.09765625 15.54296875 C-1.10281754 14.33352097 -1.10797882 13.12407318 -1.11329651 11.87797546 C-1.11337204 10.75703995 -1.11344757 9.63610443 -1.11352539 8.48120117 C-1.115746 7.49302902 -1.11796661 6.50485687 -1.12025452 5.48674011 C-1 3 -1 3 0 0 Z " fill="#082038" transform="translate(224,428)"/>
<path d="M0 0 C0.58773193 0.20157715 1.17546387 0.4031543 1.78100586 0.61083984 C0.23993164 1.55443359 0.23993164 1.55443359 -1.33227539 2.51708984 C-16.64633986 11.44306705 -16.64633986 11.44306705 -29.21899414 23.61083984 C-30.88566081 25.27750651 -32.55232747 26.94417318 -34.21899414 28.61083984 C-35.76336724 30.37868812 -37.27816717 32.1694025 -38.79321289 33.96240234 C-40.50819176 35.94519983 -42.32975155 37.79426043 -44.21899414 39.61083984 C-42.82287596 33.96566631 -40.05682937 30.53779785 -36.28149414 26.29833984 C-35.6966626 25.63680908 -35.11183105 24.97527832 -34.50927734 24.29370117 C-27.1760436 16.15595244 -18.94898815 9.91178901 -9.78149414 3.98583984 C-9.09466553 3.53490967 -8.40783691 3.08397949 -7.70019531 2.61938477 C-2.73805507 -0.48019142 -2.73805507 -0.48019142 0 0 Z " fill="#13283D" transform="translate(195.218994140625,403.38916015625)"/>
<path d="M0 0 C2 2 2 2 2.24050903 4.97390747 C2.23606781 6.24853851 2.23162659 7.52316956 2.22705078 8.83642578 C2.22734283 9.53897491 2.22763489 10.24152405 2.22793579 10.96536255 C2.22654023 13.29213731 2.21096872 15.61859354 2.1953125 17.9453125 C2.19158317 19.55671005 2.18873582 21.16810987 2.18673706 22.7795105 C2.17909431 27.02433514 2.15944039 31.2690233 2.1373291 35.51379395 C2.11688443 39.8438126 2.1077383 44.17385326 2.09765625 48.50390625 C2.07619504 57.00266686 2.04205145 65.50131646 2 74 C1.67 74 1.34 74 1 74 C0.97494385 73.29504395 0.9498877 72.59008789 0.92407227 71.86376953 C0.80681958 68.61738553 0.6846885 65.37120183 0.5625 62.125 C0.52318359 61.01640625 0.48386719 59.9078125 0.44335938 58.765625 C0.40146484 57.66992188 0.35957031 56.57421875 0.31640625 55.4453125 C0.27974854 54.45031738 0.24309082 53.45532227 0.20532227 52.43017578 C0.03957421 49.66113868 -0.22016618 46.94609114 -0.52734375 44.19140625 C-1.03546551 39.25765649 -1.04593895 34.44393403 -0.87890625 29.4921875 C-0.85529526 28.64069122 -0.83168427 27.78919495 -0.80735779 26.91189575 C-0.73171333 24.23271723 -0.64727237 21.5539036 -0.5625 18.875 C-0.50917954 17.04168362 -0.45644013 15.20835024 -0.40429688 13.375 C-0.27623537 8.91644232 -0.14029266 4.45818889 0 0 Z " fill="#070705" transform="translate(893,488)"/>
<path d="M0 0 C0.33 0 0.66 0 1 0 C1 18.15 1 36.3 1 55 C0.01 55.495 0.01 55.495 -1 56 C-2.68945197 9.98939305 -2.68945197 9.98939305 0 0 Z " fill="#11120E" transform="translate(517,483)"/>
<path d="M0 0 C5.42998438 1.45703169 9.40958667 4.05432986 13.9375 7.25 C14.95360352 7.94802734 14.95360352 7.94802734 15.99023438 8.66015625 C23.64771109 13.99028865 30.0546345 19.81601668 36 27 C37.00546875 28.17369141 37.00546875 28.17369141 38.03125 29.37109375 C38.6809375 30.15613281 39.330625 30.94117188 40 31.75 C40.598125 32.46671875 41.19625 33.1834375 41.8125 33.921875 C43 36 43 36 42.6875 38.265625 C42.460625 38.83796875 42.23375 39.4103125 42 40 C41.46890625 39.26394531 40.9378125 38.52789062 40.390625 37.76953125 C39.68421875 36.79371094 38.9778125 35.81789063 38.25 34.8125 C37.55390625 33.84957031 36.8578125 32.88664062 36.140625 31.89453125 C27.55505248 20.28520782 17.33757943 12.02594468 4.82666016 4.96972656 C3.18761396 4.03059739 1.58914942 3.02129336 0 2 C0 1.34 0 0.68 0 0 Z " fill="#12283D" transform="translate(299,405)"/>
<path d="M0 0 C4.81138372 2.93272122 8.33793257 6.23234322 12.0625 10.4375 C13.07321622 11.56209974 14.08492339 12.68580971 15.09765625 13.80859375 C15.58508301 14.3497583 16.07250977 14.89092285 16.57470703 15.44848633 C18.64682618 17.70410763 20.8148718 19.85434045 23 22 C32.97732426 31.80725624 32.97732426 31.80725624 36 36 C35.67 36.99 35.34 37.98 35 39 C31.41580961 35.51385738 27.93882475 31.98845345 24.6875 28.1875 C21.13886484 24.06470365 17.29775658 20.28197839 13.4296875 16.4609375 C10.64462687 13.64005615 8.04387819 10.70245528 5.47265625 7.6875 C4.23684386 6.27139667 2.90866507 4.93664801 1.5625 3.625 C0 2 0 2 0 0 Z " fill="#0E263E" transform="translate(240,526)"/>
<path d="M0 0 C0.33 0 0.66 0 1 0 C1.02505615 0.77601563 1.0501123 1.55203125 1.07592773 2.3515625 C1.19267745 5.90117731 1.3150431 9.45057768 1.4375 13 C1.49647461 14.83111328 1.49647461 14.83111328 1.55664062 16.69921875 C1.79533386 24.06384847 1.79533386 24.06384847 2.5234375 31.390625 C3.92570022 42.01104099 3.21580336 52.55406989 1 63 C0.67 63 0.34 63 0 63 C0 42.21 0 21.42 0 0 Z " fill="#080906" transform="translate(662,497)"/>
<path d="M0 0 C9.9 0.33 19.8 0.66 30 1 C30.33 1.99 30.66 2.98 31 4 C29.19402344 4.09087891 29.19402344 4.09087891 27.3515625 4.18359375 C25.77602923 4.26799732 24.20050904 4.35264541 22.625 4.4375 C21.8309375 4.47681641 21.036875 4.51613281 20.21875 4.55664062 C15.97398779 4.68893404 15.97398779 4.68893404 12 6 C12 5.34 12 4.68 12 4 C8.37 4 4.74 4 1 4 C0.67 2.68 0.34 1.36 0 0 Z " fill="#23221C" transform="translate(741,561)"/>
<path d="M0 0 C0.66 0 1.32 0 2 0 C2.02505615 0.9472998 2.0501123 1.89459961 2.07592773 2.87060547 C2.17182769 6.43042937 2.27100765 9.99013208 2.37231445 13.54980469 C2.41526857 15.0819957 2.45696577 16.61422254 2.49731445 18.14648438 C2.71733471 26.4692258 3.02102199 34.72393383 4 43 C0.37655852 39.83275813 0.24335786 36.53265614 -0.1875 31.9375 C-0.26718018 31.16889648 -0.34686035 30.40029297 -0.42895508 29.60839844 C-1.40999232 19.61467425 -0.87735637 9.99559576 0 0 Z " fill="#132638" transform="translate(132,488)"/>
<path d="M0 0 C0.99 0.33 1.98 0.66 3 1 C3 12.88 3 24.76 3 37 C2.67 37 2.34 37 2 37 C1.97494385 36.38592285 1.9498877 35.7718457 1.92407227 35.13916016 C1.80654736 32.30097366 1.68454474 29.4629956 1.5625 26.625 C1.52318359 25.65949219 1.48386719 24.69398438 1.44335938 23.69921875 C1.17003564 17.43379773 0.67819603 11.23484414 0 5 C-6.6 4.67 -13.2 4.34 -20 4 C-20.33 3.34 -20.66 2.68 -21 2 C-14.07 2 -7.14 2 0 2 C0 1.34 0 0.68 0 0 Z " fill="#2C2B24" transform="translate(704,432)"/>
<path d="M0 0 C-0.33 0.99 -0.66 1.98 -1 3 C-12.6235827 4.53157796 -24.3764173 4.53157796 -36 3 C-36 2.34 -36 1.68 -36 1 C-31.51597575 0.85677938 -27.03192619 0.71438669 -22.54785156 0.57275391 C-21.02310479 0.52447782 -19.49836511 0.47597735 -17.97363281 0.42724609 C-15.77931524 0.35715381 -13.58497326 0.2878742 -11.390625 0.21875 C-10.7113092 0.19687622 -10.03199341 0.17500244 -9.33209229 0.15246582 C-6.21840673 0.05511724 -3.11583496 0 0 0 Z " fill="#152B41" transform="translate(265,616)"/>
<path d="M0 0 C0.66 0 1.32 0 2 0 C3.58645357 3.17290713 3.12078213 6.58825384 3.09765625 10.0703125 C3.0962413 10.86654022 3.09482635 11.66276794 3.09336853 12.48312378 C3.08776345 15.0304538 3.07521014 17.57769647 3.0625 20.125 C3.05748565 21.85025915 3.05292263 23.57551967 3.04882812 25.30078125 C3.03779237 29.53388791 3.02052436 33.76692914 3 38 C2.01 37.34 1.02 36.68 0 36 C-0.2667616 33.23371085 -0.34804189 30.69380369 -0.29296875 27.9296875 C-0.28872391 27.13345978 -0.28447906 26.33723206 -0.28010559 25.51687622 C-0.26328834 22.96924271 -0.22563179 20.42239511 -0.1875 17.875 C-0.17245705 16.14975099 -0.15876796 14.42448961 -0.14648438 12.69921875 C-0.11337501 8.46584218 -0.06157285 4.23305441 0 0 Z " fill="#25251F" transform="translate(704,526)"/>
<path d="M0 0 C8.25 0 16.5 0 25 0 C25.495 6.93 25.495 6.93 26 14 C25.01 14.495 25.01 14.495 24 15 C24 10.38 24 5.76 24 1 C17.07 1 10.14 1 3 1 C3.020625 2.876875 3.04125 4.75375 3.0625 6.6875 C3.10576898 10.62497726 2.90413673 14.16275828 2 18 C1.34 18 0.68 18 0 18 C0 16.68 0 15.36 0 14 C-0.66 13.67 -1.32 13.34 -2 13 C-1.34 13 -0.68 13 0 13 C0 8.71 0 4.42 0 0 Z " fill="#2D2D26" transform="translate(515,470)"/>
<path d="M0 0 C3.81097766 1.27032589 4.14007875 2.51902451 6.125 5.9375 C10.52065606 13.09906676 15.97930511 19.0496083 21.9375 24.9375 C24 27 24 27 26 30 C19.15242408 29.15599646 13.66661495 21.31553854 9.53125 16.17382812 C8.11455582 14.3240413 6.73467829 12.45454042 5.375 10.5625 C4.73667236 9.67655151 4.73667236 9.67655151 4.08544922 8.77270508 C2.10814722 5.93038429 0.49424385 3.46822842 0 0 Z " fill="#162A3E" transform="translate(146,561)"/>
<path d="M0 0 C1.04736328 0.05220703 2.09472656 0.10441406 3.17382812 0.15820312 C5.72048782 0.28611754 8.26656703 0.42097013 10.8125 0.5625 C10.8125 1.2225 10.8125 1.8825 10.8125 2.5625 C-0.4075 2.5625 -11.6275 2.5625 -23.1875 2.5625 C-23.1875 1.9025 -23.1875 1.2425 -23.1875 0.5625 C-15.37459348 -0.36239536 -7.84806053 -0.43796104 0 0 Z " fill="#141511" transform="translate(629.1875,508.4375)"/>
<path d="M0 0 C10.23 0 20.46 0 31 0 C31 1.32 31 2.64 31 4 C16.15 3.505 16.15 3.505 1 3 C0.67 2.01 0.34 1.02 0 0 Z " fill="#030301" transform="translate(475,562)"/>
<path d="M0 0 C0.33 0.99 0.66 1.98 1 3 C-1.90288347 5.90850921 -4.81431673 8.80794771 -7.734375 11.69921875 C-9.07296143 13.02860076 -10.41150224 14.35802871 -11.75 15.6875 C-12.43449219 16.36361328 -13.11898438 17.03972656 -13.82421875 17.73632812 C-14.80068359 18.70795898 -14.80068359 18.70795898 -15.796875 19.69921875 C-16.38823242 20.28533936 -16.97958984 20.87145996 -17.58886719 21.4753418 C-19.09829824 22.96381818 -19.09829824 22.96381818 -20 25 C-20.66 25 -21.32 25 -22 25 C-22 25.66 -22 26.32 -22 27 C-22.99 26.67 -23.98 26.34 -25 26 C-24.45730469 25.46890625 -23.91460937 24.9378125 -23.35546875 24.390625 C-22.64003906 23.68421875 -21.92460937 22.9778125 -21.1875 22.25 C-20.12595703 21.20585937 -20.12595703 21.20585937 -19.04296875 20.140625 C-16.96718507 18.06278237 -16.96718507 18.06278237 -15.36328125 15.734375 C-14.91339844 15.16203125 -14.46351563 14.5896875 -14 14 C-13.34 14 -12.68 14 -12 14 C-11.66355469 13.17242187 -11.66355469 13.17242187 -11.3203125 12.328125 C-9.59614817 9.28788256 -7.37484178 7.18574327 -4.875 4.75 C-3.96492188 3.85796875 -3.05484375 2.9659375 -2.1171875 2.046875 C-1.41851562 1.37140625 -0.71984375 0.6959375 0 0 Z " fill="#0D2136" transform="translate(272,435)"/>
<path d="M0 0 C0 0.99 0 1.98 0 3 C-3.26097992 3.9793543 -6.17343284 4.10305303 -9.5703125 4.0625 C-10.63121094 4.05476563 -11.69210937 4.04703125 -12.78515625 4.0390625 C-13.88730469 4.02617187 -14.98945313 4.01328125 -16.125 4 C-18.31505554 3.97456381 -20.50516773 3.95350593 -22.6953125 3.9375 C-23.66484863 3.92589844 -24.63438477 3.91429687 -25.63330078 3.90234375 C-28.01925423 3.83881115 -28.01925423 3.83881115 -30 5 C-30 3.68 -30 2.36 -30 1 C-15.15 0.505 -15.15 0.505 0 0 Z " fill="#0A0B07" transform="translate(505,437)"/>
<path d="M0 0 C0.33 0 0.66 0 1 0 C1.0498443 4.6773121 1.08592757 9.35446584 1.10986328 14.03198242 C1.11985321 15.61957496 1.1334498 17.20714943 1.15087891 18.79467773 C1.32450751 35.02895258 1.32450751 35.02895258 -1 43 C-1.66 43 -2.32 43 -3 43 C-2.85737588 41.4372038 -2.71074489 39.87477304 -2.5625 38.3125 C-2.48128906 37.44238281 -2.40007812 36.57226562 -2.31640625 35.67578125 C-2 33 -2 33 -1.5 30.74609375 C-0.92747298 27.60166803 -0.78570318 24.58128534 -0.68359375 21.38671875 C-0.64169922 20.13955078 -0.59980469 18.89238281 -0.55664062 17.60742188 C-0.51732422 16.31384766 -0.47800781 15.02027344 -0.4375 13.6875 C-0.39431641 12.37458984 -0.35113281 11.06167969 -0.30664062 9.70898438 C-0.20072773 6.47275712 -0.09865115 3.23645542 0 0 Z " fill="#0A1628" transform="translate(359,492)"/>
<path d="M0 0 C1.32 0 2.64 0 4 0 C4.00257813 0.75023437 4.00515625 1.50046875 4.0078125 2.2734375 C4.28098323 9.50335604 5.61148378 14.03546918 9.8203125 19.94140625 C10.20960938 20.62074219 10.59890625 21.30007813 11 22 C10.67 22.99 10.34 23.98 10 25 C3.46679442 17.24049693 0.91157037 10.02727412 0 0 Z " fill="#1F1E19" transform="translate(576,535)"/>
<path d="M0 0 C0.33 0 0.66 0 1 0 C1.22704595 3.87413974 1.42830478 7.74921015 1.625 11.625 C1.68945312 12.71941406 1.75390625 13.81382812 1.8203125 14.94140625 C2.30707097 24.98079979 2.30707097 24.98079979 0 30 C-0.33 30 -0.66 30 -1 30 C-1.02465746 25.8882744 -1.04283959 21.77657722 -1.05493164 17.66479492 C-1.0599708 16.26504772 -1.06680216 14.8653058 -1.07543945 13.46557617 C-1.0875232 11.45754223 -1.09269807 9.44947043 -1.09765625 7.44140625 C-1.10289307 6.23170166 -1.10812988 5.02199707 -1.11352539 3.77563477 C-1 1 -1 1 0 0 Z " fill="#090906" transform="translate(539,532)"/>
<path d="M0 0 C0.33 0 0.66 0 1 0 C0.67 2.31 0.34 4.62 0 7 C-7.59 7 -15.18 7 -23 7 C-23 6.01 -23 5.02 -23 4 C-15.74 4.33 -8.48 4.66 -1 5 C-0.67 3.35 -0.34 1.7 0 0 Z " fill="#0A0A07" transform="translate(605,494)"/>
<path d="M0 0 C0.33 0.66 0.66 1.32 1 2 C1.66 2.33 2.32 2.66 3 3 C2 6 2 6 -0.125 7.25 C-3.69966583 8.18252152 -6.40516483 7.70486964 -10 7 C-10 7.66 -10 8.32 -10 9 C-10.66 8.67 -11.32 8.34 -12 8 C-13.47668337 7.9047301 -14.95775457 7.87014041 -16.4375 7.875 C-17.21996094 7.87242187 -18.00242187 7.86984375 -18.80859375 7.8671875 C-21.17895347 7.91617452 -21.17895347 7.91617452 -24 9 C-24 8.01 -24 7.02 -24 6 C-23.40461426 5.97494385 -22.80922852 5.9498877 -22.19580078 5.92407227 C-19.50530864 5.80822506 -16.8151766 5.68544804 -14.125 5.5625 C-13.18785156 5.52318359 -12.25070312 5.48386719 -11.28515625 5.44335938 C-10.38925781 5.40146484 -9.49335937 5.35957031 -8.5703125 5.31640625 C-7.74289551 5.27974854 -6.91547852 5.24309082 -6.06298828 5.20532227 C-3.93820571 5.11761673 -3.93820571 5.11761673 -2 4 C-0.86649466 1.98330173 -0.86649466 1.98330173 0 0 Z " fill="#525044" transform="translate(540,558)"/>
<path d="M0 0 C-1.72154788 3.76488042 -3.99234114 6.15063897 -7 9 C-7 6 -7 6 -5 3 C-13.25 3 -21.5 3 -30 3 C-29.67 2.34 -29.34 1.68 -29 1 C-9.03189066 -0.14806378 -9.03189066 -0.14806378 0 0 Z " fill="#272720" transform="translate(770,469)"/>
<path d="M0 0 C0.66 0 1.32 0 2 0 C3.26171875 1.43359375 3.26171875 1.43359375 4.6875 3.4375 C7.56237921 7.43671316 10.62396772 11.23681903 13.77734375 15.01953125 C14.18082031 15.67308594 14.58429687 16.32664062 15 17 C14.67 17.99 14.34 18.98 14 20 C10.48802464 15.96122834 7.02873682 11.88051337 3.625 7.75 C2.93664062 6.91984375 2.24828125 6.0896875 1.5390625 5.234375 C0 3 0 3 0 0 Z " fill="#141511" transform="translate(729,513)"/>
<path d="M0 0 C1.53720703 0.01450195 1.53720703 0.01450195 3.10546875 0.02929688 C4.70068359 0.06700195 4.70068359 0.06700195 6.328125 0.10546875 C7.94654297 0.12577148 7.94654297 0.12577148 9.59765625 0.14648438 C12.2583192 0.18180291 14.91796796 0.23112676 17.578125 0.29296875 C17.578125 0.62296875 17.578125 0.95296875 17.578125 1.29296875 C12.66309742 2.5853259 7.80522398 2.40432392 2.765625 2.35546875 C1.88197266 2.35095703 0.99832031 2.34644531 0.08789062 2.34179688 C-2.08206059 2.33006741 -4.25197672 2.3121337 -6.421875 2.29296875 C-7.081875 3.61296875 -7.741875 4.93296875 -8.421875 6.29296875 C-8.751875 5.30296875 -9.081875 4.31296875 -9.421875 3.29296875 C-6.23351134 0.44902709 -4.23901246 -0.07065021 0 0 Z " fill="#0B0B09" transform="translate(747.421875,470.70703125)"/>
<path d="M0 0 C0.33 0 0.66 0 1 0 C1.33 5.61 1.66 11.22 2 17 C2.33 17 2.66 17 3 17 C3.05391993 18.79133978 3.09275571 20.58313899 3.125 22.375 C3.14820313 23.37273438 3.17140625 24.37046875 3.1953125 25.3984375 C3 28 3 28 1 30 C0.21861527 24.64193328 -0.24974929 19.27564287 -0.625 13.875 C-0.67712646 13.194375 -0.72925293 12.51375 -0.78295898 11.8125 C-1.05102898 7.70708533 -0.84032638 4.02604133 0 0 Z " fill="#2E2E28" transform="translate(515,521)"/>
<path d="M0 0 C6.54551919 5.34328097 11.98462374 11.20205026 17 18 C12.43869832 17.64331053 10.17921172 14.29034264 7.375 11.0625 C6.40380746 9.96990839 5.43245951 8.8774549 4.4609375 7.78515625 C3.64882813 6.86605469 2.83671875 5.94695313 2 5 C1.34 4.34 0.68 3.68 0 3 C0 2.01 0 1.02 0 0 Z " fill="#0E2339" transform="translate(273,519)"/>
<path d="M0 0 C0.99 0.33 1.98 0.66 3 1 C-1.08424305 6.61583419 -6.23921161 11.15947441 -12 15 C-11.58685438 10.55073948 -8.49538473 8.15899896 -5.4375 5.25 C-4.91736328 4.74339844 -4.39722656 4.23679687 -3.86132812 3.71484375 C-2.58089916 2.46965595 -1.29132446 1.23388498 0 0 Z " fill="#112A40" transform="translate(301,443)"/>
<path d="M0 0 C1.7074998 1.28062485 3.37373596 2.61767557 5 4 C5 4.66 5 5.32 5 6 C5.99 6.33 6.98 6.66 8 7 C9.82421875 8.84765625 9.82421875 8.84765625 11.6875 11.0625 C12.31011719 11.79597656 12.93273437 12.52945313 13.57421875 13.28515625 C14.04472656 13.85105469 14.51523437 14.41695312 15 15 C14.01 15.33 13.02 15.66 12 16 C9.99074192 13.90403286 7.99268779 11.79912074 6 9.6875 C5.42765625 9.09259766 4.8553125 8.49769531 4.265625 7.88476562 C3.72421875 7.30791016 3.1828125 6.73105469 2.625 6.13671875 C2.12226563 5.60780029 1.61953125 5.07888184 1.1015625 4.53393555 C0 3 0 3 0 0 Z " fill="#0F273D" transform="translate(291,538)"/>
<path d="M0 0 C2 2 2 2 2.265625 3.9609375 C2.22140564 10.79282911 1.29000793 17.29656593 0 24 C-0.33 24 -0.66 24 -1 24 C-1.02909763 20.75001888 -1.04683161 17.50007143 -1.0625 14.25 C-1.07087891 13.32960938 -1.07925781 12.40921875 -1.08789062 11.4609375 C-1.09111328 10.57148437 -1.09433594 9.68203125 -1.09765625 8.765625 C-1.10289307 7.94868164 -1.10812988 7.13173828 -1.11352539 6.29003906 C-1.00299021 4.06031865 -0.62055567 2.13866245 0 0 Z " fill="#12120F" transform="translate(663,536)"/>
<path d="M0 0 C3.63 0 7.26 0 11 0 C11 6.93 11 13.86 11 21 C9.68 21 8.36 21 7 21 C7 20.34 7 19.68 7 19 C7.66 18.67 8.32 18.34 9 18 C9 13.05 9 8.1 9 3 C4.545 2.01 4.545 2.01 0 1 C0 0.67 0 0.34 0 0 Z " fill="#060704" transform="translate(561,470)"/>
<path d="M0 0 C4.52698636 1.39910413 6.75155982 3.5615174 9.8125 7.125 C10.99779297 8.49011719 10.99779297 8.49011719 12.20703125 9.8828125 C13.09455078 10.93082031 13.09455078 10.93082031 14 12 C13.01 12.33 12.02 12.66 11 13 C10.11248047 11.89978516 10.11248047 11.89978516 9.20703125 10.77734375 C8.41683594 9.84019531 7.62664062 8.90304687 6.8125 7.9375 C5.64654297 6.52791016 5.64654297 6.52791016 4.45703125 5.08984375 C2.17994519 2.6602053 2.17994519 2.6602053 -0.80078125 3.19140625 C-1.52652344 3.45824219 -2.25226563 3.72507812 -3 4 C-2.01 2.68 -1.02 1.36 0 0 Z " fill="#0C233A" transform="translate(258,505)"/>
<path d="M0 0 C0 0.33 0 0.66 0 1 C-0.90492188 1.07347656 -0.90492188 1.07347656 -1.828125 1.1484375 C-2.62734375 1.22320312 -3.4265625 1.29796875 -4.25 1.375 C-5.43335938 1.47941406 -5.43335938 1.47941406 -6.640625 1.5859375 C-9.12277678 2.02154692 -10.77843707 2.8379517 -13 4 C-14.7394795 4.57455535 -16.49033048 5.11562198 -18.25 5.625 C-19.14203125 5.88539063 -20.0340625 6.14578125 -20.953125 6.4140625 C-21.62859375 6.60742188 -22.3040625 6.80078125 -23 7 C-22 4 -22 4 -20.13671875 2.83203125 C-13.28065833 -0.02192692 -7.37956261 -0.45646779 0 0 Z " fill="#272721" transform="translate(572,469)"/>
<path d="M0 0 C0.33 0.66 0.66 1.32 1 2 C-1.95714663 2.38831218 -4.91483273 2.76115547 -7.875 3.125 C-9.13763672 3.29322266 -9.13763672 3.29322266 -10.42578125 3.46484375 C-11.23144531 3.56152344 -12.03710938 3.65820312 -12.8671875 3.7578125 C-13.98262939 3.89920654 -13.98262939 3.89920654 -15.12060547 4.04345703 C-17 4 -17 4 -19 2 C-12.53991163 0.04978464 -6.7281627 -0.22262303 0 0 Z " fill="#23241D" transform="translate(840,468)"/>
<path d="M0 0 C11.88 0 23.76 0 36 0 C35.01 0.99 34.02 1.98 33 3 C32.505 2.505 32.505 2.505 32 2 C29.62661361 1.84028023 27.27881728 1.7407567 24.90234375 1.68359375 C24.19348526 1.66281265 23.48462677 1.64203156 22.75428772 1.62062073 C20.48212695 1.55505402 18.20984736 1.4962077 15.9375 1.4375 C14.40037817 1.39432151 12.8632685 1.35070745 11.32617188 1.30664062 C7.5509041 1.19936551 3.7755164 1.09811863 0 1 C0 0.67 0 0.34 0 0 Z " fill="#2A5471" transform="translate(280,429)"/>
<path d="M0 0 C0.33 0 0.66 0 1 0 C1 1.65 1 3.3 1 5 C8.59 5 16.18 5 24 5 C24.33 4.34 24.66 3.68 25 3 C25 3.99 25 4.98 25 6 C24.03175293 6.03758423 24.03175293 6.03758423 23.04394531 6.07592773 C20.11244106 6.19214433 17.18123783 6.31475442 14.25 6.4375 C13.23421875 6.47681641 12.2184375 6.51613281 11.171875 6.55664062 C9.70234375 6.61948242 9.70234375 6.61948242 8.203125 6.68359375 C7.30239258 6.72025146 6.40166016 6.75690918 5.47363281 6.79467773 C3.20403661 6.98306407 1.18437113 7.37366501 -1 8 C-0.67 5.36 -0.34 2.72 0 0 Z " fill="#49483E" transform="translate(581,496)"/>
<path d="M0 0 C0.76953125 1.67578125 0.76953125 1.67578125 1 4 C-0.80078125 6.54296875 -0.80078125 6.54296875 -3.3125 9.1875 C-4.54419922 10.50814453 -4.54419922 10.50814453 -5.80078125 11.85546875 C-8 14 -8 14 -10 15 C-9.45230629 10.81761166 -7.10111111 8.40131455 -4.4375 5.25 C-3.19806641 3.77273438 -3.19806641 3.77273438 -1.93359375 2.265625 C-1.29550781 1.51796875 -0.65742187 0.7703125 0 0 Z " fill="#141411" transform="translate(727,486)"/>
<path d="M0 0 C0.33 0 0.66 0 1 0 C1.19476139 2.60380996 1.38108614 5.20775533 1.5625 7.8125 C1.61857422 8.55048828 1.67464844 9.28847656 1.73242188 10.04882812 C1.95769724 13.36788516 2.06255812 15.81232564 1 19 C-1 17 -1 17 -1.23046875 13.84765625 C-1.21628906 12.59855469 -1.20210937 11.34945312 -1.1875 10.0625 C-1.18105469 8.81597656 -1.17460938 7.56945312 -1.16796875 6.28515625 C-1 3 -1 3 0 0 Z " fill="#12120F" transform="translate(539,511)"/>
<path d="M0 0 C0 4.07434009 -1.76293677 7.0960044 -3.5 10.6875 C-3.83386719 11.38939453 -4.16773438 12.09128906 -4.51171875 12.81445312 C-5.33599411 14.54543137 -6.16732406 16.2730471 -7 18 C-7.33 18 -7.66 18 -8 18 C-7.6374404 11.35307403 -5.84588425 6.47529316 -2 1 C-1.34 0.67 -0.68 0.34 0 0 Z " fill="#13263A" transform="translate(148,447)"/>
<path d="M0 0 C3 1 3 1 4.60546875 3.546875 C5.12753906 4.60390625 5.64960938 5.6609375 6.1875 6.75 C6.71730469 7.79671875 7.24710937 8.8434375 7.79296875 9.921875 C8.96557195 12.91220291 9.26382945 14.83404664 9 18 C6.44624385 14.82505993 4.62552847 11.51896339 2.8125 7.875 C2.28269531 6.82054687 1.75289063 5.76609375 1.20703125 4.6796875 C0 2 0 2 0 0 Z " fill="#13273A" transform="translate(344,448)"/>
<path d="M0 0 C0.66 0.33 1.32 0.66 2 1 C2.02722517 3.20826378 2.04649729 5.41662638 2.0625 7.625 C2.07410156 8.85476563 2.08570313 10.08453125 2.09765625 11.3515625 C2.00863924 14.67723791 1.63686087 17.74047588 1 21 C0.67 21 0.34 21 0 21 C-0.19461488 18.06281233 -0.38097593 15.12550068 -0.5625 12.1875 C-0.61857422 11.35412109 -0.67464844 10.52074219 -0.73242188 9.66210938 C-0.78076172 8.85966797 -0.82910156 8.05722656 -0.87890625 7.23046875 C-0.9260376 6.49207764 -0.97316895 5.75368652 -1.02172852 4.99291992 C-1 3 -1 3 0 0 Z " fill="#051A30" transform="translate(224,428)"/>
<path d="M0 0 C0.66 0.33 1.32 0.66 2 1 C1.67 1.99 1.34 2.98 1 4 C-13.85 3.505 -13.85 3.505 -29 3 C-29 2.67 -29 2.34 -29 2 C-19.43 2 -9.86 2 0 2 C0 1.34 0 0.68 0 0 Z " fill="#4E4C40" transform="translate(505,562)"/>
<path d="M0 0 C0.33 0.99 0.66 1.98 1 3 C-0.61886415 4.67262717 -2.2452729 6.33795537 -3.875 8 C-5.23238281 9.3921875 -5.23238281 9.3921875 -6.6171875 10.8125 C-9 13 -9 13 -11 13 C-9.46356148 9.31930113 -7.21849055 7.01224796 -4.375 4.25 C-3.55773437 3.45078125 -2.74046875 2.6515625 -1.8984375 1.828125 C-0.95871094 0.92320312 -0.95871094 0.92320312 0 0 Z " fill="#10263C" transform="translate(242,466)"/>
<path d="M0 0 C2 1 2 1 3.125 3.6875 C4.71852949 9.61343779 4.15174116 15.92192359 4 22 C3.67 22 3.34 22 3 22 C3 18.04 3 14.08 3 10 C2.34 10 1.68 10 1 10 C0.67 6.7 0.34 3.4 0 0 Z " fill="#12120E" transform="translate(853,502)"/>
<path d="M0 0 C4.19469571 0.59924224 8.00999834 1.57499941 12 3 C12 3.66 12 4.32 12 5 C12.66 5.33 13.32 5.66 14 6 C12.01432292 5.70703125 10.02864583 5.4140625 8.04296875 5.12109375 C5.7974658 4.86095201 5.7974658 4.86095201 3 6 C3 5.01 3 4.02 3 3 C1.56249809 1.31201173 1.56249809 1.31201173 0 0 Z " fill="#2B2A24" transform="translate(589,561)"/>
<path d="M0 0 C3.54243452 1.36591169 6.92627929 2.90931484 10.3125 4.625 C11.63701172 5.29402344 11.63701172 5.29402344 12.98828125 5.9765625 C13.65214844 6.31429687 14.31601563 6.65203125 15 7 C15 7.33 15 7.66 15 8 C9.31283353 7.53574151 5.74315722 6.22534691 1 3 C0.67 2.01 0.34 1.02 0 0 Z " fill="#13283D" transform="translate(185,601)"/>
<path d="M0 0 C0.66 0.33 1.32 0.66 2 1 C-1.63 4.63 -5.26 8.26 -9 12 C-9.33 11.01 -9.66 10.02 -10 9 C-8.89902432 7.87187697 -7.79408444 6.74762189 -6.6875 5.625 C-6.07261719 4.99851562 -5.45773437 4.37203125 -4.82421875 3.7265625 C-3 2 -3 2 0 0 Z " fill="#0D263E" transform="translate(315,430)"/>
<path d="M0 0 C-0.61875 0.28875 -1.2375 0.5775 -1.875 0.875 C-4.13325765 1.93720042 -4.13325765 1.93720042 -6 4 C-8.3828125 4.1953125 -8.3828125 4.1953125 -11.125 4.125 C-12.49011719 4.09792969 -12.49011719 4.09792969 -13.8828125 4.0703125 C-14.58148437 4.04710937 -15.28015625 4.02390625 -16 4 C-11.71327571 -0.28672429 -5.76159905 -0.23516731 0 0 Z " fill="#161612" transform="translate(568,489)"/>
<path d="M0 0 C6.81598387 -0.33278764 11.92122066 -0.24201565 18 3 C18 3.33 18 3.66 18 4 C15.03 3.67 12.06 3.34 9 3 C9 2.34 9 1.68 9 1 C6.03 1 3.06 1 0 1 C0 0.67 0 0.34 0 0 Z " fill="#12120E" transform="translate(617,486)"/>
<path d="M0 0 C4.65824341 0.84879056 7.15966714 3.32427513 10 7 C10.875 9.875 10.875 9.875 11 12 C9.29115995 10.37660195 7.62553283 8.70680947 6 7 C6 6.34 6 5.68 6 5 C5.38125 4.731875 4.7625 4.46375 4.125 4.1875 C2 3 2 3 0 0 Z " fill="#11110D" transform="translate(859,477)"/>
<path d="M0 0 C0.66 0.33 1.32 0.66 2 1 C0.68 3.31 -0.64 5.62 -2 8 C-2.66 8 -3.32 8 -4 8 C-4.66 9.32 -5.32 10.64 -6 12 C-6.66 11.34 -7.32 10.68 -8 10 C-8 9.34 -8 8.68 -8 8 C-7.236875 7.566875 -6.47375 7.13375 -5.6875 6.6875 C-2.68071451 4.79951841 -1.60145073 3.11861458 0 0 Z " fill="#122C45" transform="translate(264,480)"/>
<path d="M0 0 C0.99 0.33 1.98 0.66 3 1 C2.67 1.99 2.34 2.98 2 4 C-4.93 3.67 -11.86 3.34 -19 3 C-19 2.67 -19 2.34 -19 2 C-12.73 2 -6.46 2 0 2 C0 1.34 0 0.68 0 0 Z " fill="#27271F" transform="translate(704,432)"/>
<path d="M0 0 C1 3 1 3 -0.109375 5.26171875 C-0.65078125 6.06222656 -1.1921875 6.86273437 -1.75 7.6875 C-2.28109375 8.49574219 -2.8121875 9.30398438 -3.359375 10.13671875 C-3.90078125 10.75160156 -4.4421875 11.36648438 -5 12 C-5.99 12 -6.98 12 -8 12 C-5.36 8.04 -2.72 4.08 0 0 Z " fill="#112538" transform="translate(344,562)"/>
<path d="M0 0 C3.35250701 0.57575664 4.93818629 1.59306263 7.25 4.0625 C8.03117187 4.88427734 8.03117187 4.88427734 8.828125 5.72265625 C9.21484375 6.14417969 9.6015625 6.56570313 10 7 C9.67 7.99 9.34 8.98 9 10 C7.49702124 8.52386015 5.99768715 7.04400843 4.5 5.5625 C3.6646875 4.73878906 2.829375 3.91507813 1.96875 3.06640625 C0 1 0 1 0 0 Z " fill="#11283E" transform="translate(277,566)"/>
<path d="M0 0 C0 0.99 0 1.98 0 3 C-1.609375 4.421875 -1.609375 4.421875 -3.75 5.75 C-4.44609375 6.19859375 -5.1421875 6.6471875 -5.859375 7.109375 C-8 8 -8 8 -12 7 C-8.04 4.69 -4.08 2.38 0 0 Z " fill="#102439" transform="translate(309,599)"/>
<path d="M0 0 C4.71403788 0.47939368 8.66579301 0.96834048 13 3 C13 3.66 13 4.32 13 5 C8.15340923 4.40895235 4.39251833 3.02055843 0 1 C0 0.67 0 0.34 0 0 Z " fill="#132A41" transform="translate(278,397)"/>
<path d="M0 0 C7.48291572 6.15034169 7.48291572 6.15034169 10 10 C6.7451198 9.41978222 5.06347592 8.47352859 2.75 6.125 C2.22921875 5.61195313 1.7084375 5.09890625 1.171875 4.5703125 C0 3 0 3 0 0 Z " fill="#0E243B" transform="translate(162,581)"/>
<path d="M0 0 C0.33 0 0.66 0 1 0 C1.04898438 0.61488281 1.09796875 1.22976563 1.1484375 1.86328125 C1.22320313 2.67152344 1.29796875 3.47976563 1.375 4.3125 C1.44460938 5.11300781 1.51421875 5.91351562 1.5859375 6.73828125 C1.89564426 9.27224441 1.89564426 9.27224441 4 12 C4.125 14.6875 4.125 14.6875 4 17 C1.19358805 14.54438955 0.06421329 12.72617673 -0.265625 8.99609375 C-0.25142274 5.98876484 -0.17237569 3.00220998 0 0 Z " fill="#272721" transform="translate(537,519)"/>
<path d="M0 0 C0.33 0.99 0.66 1.98 1 3 C-1.57784846 5.64752004 -3.91648098 7.94432065 -7 10 C-6.42424336 6.64749299 -5.40693737 5.06181371 -2.9375 2.75 C-2.38964844 2.22921875 -1.84179688 1.7084375 -1.27734375 1.171875 C-0.64505859 0.59179688 -0.64505859 0.59179688 0 0 Z " fill="#12293F" transform="translate(272,435)"/>
<path d="M0 0 C0.66 0.33 1.32 0.66 2 1 C-1.66666667 4.66666667 -5.33333333 8.33333333 -9 12 C-8.45015228 8.12488273 -6.72444669 6.40423494 -3.9375 3.75 C-3.20402344 3.04359375 -2.47054687 2.3371875 -1.71484375 1.609375 C-1.14894531 1.07828125 -0.58304688 0.5471875 0 0 Z " fill="#06192F" transform="translate(238,509)"/>
<path d="M0 0 C0.33 0.99 0.66 1.98 1 3 C-0.98 4.98 -2.96 6.96 -5 9 C-5.99 8.67 -6.98 8.34 -8 8 C-5.36 5.36 -2.72 2.72 0 0 Z " fill="#0F253B" transform="translate(252,511)"/>
<path d="M0 0 C0.33 0 0.66 0 1 0 C1.3125 2.1875 1.3125 2.1875 1 5 C-1.25 7.875 -1.25 7.875 -4 10 C-6.3125 9.8125 -6.3125 9.8125 -8 9 C-7.236875 8.62875 -6.47375 8.2575 -5.6875 7.875 C-2.47956885 5.6369085 -1.5022184 3.55788567 0 0 Z " fill="#131310" transform="translate(915,448)"/>
<path d="M0 0 C-1.17255709 3.33727786 -2.18868404 5.77437487 -5 8 C-5.66 8 -6.32 8 -7 8 C-6.44414399 4.1090079 -4.34122117 0 0 0 Z " fill="#131411" transform="translate(473,444)"/>
<path d="M0 0 C1.32 0.33 2.64 0.66 4 1 C3.01 1.495 3.01 1.495 2 2 C2 6.62 2 11.24 2 16 C1.67 16 1.34 16 1 16 C0.67 10.72 0.34 5.44 0 0 Z " fill="#141310" transform="translate(803,552)"/>
<path d="M0 0 C0.33 0.99 0.66 1.98 1 3 C-1.31 5.31 -3.62 7.62 -6 10 C-6.66 9.67 -7.32 9.34 -8 9 C-5.36 6.03 -2.72 3.06 0 0 Z " fill="#11120F" transform="translate(469,477)"/>
<path d="M0 0 C0.33 0 0.66 0 1 0 C0.88541307 1.43836751 0.75790884 2.87570966 0.625 4.3125 C0.55539062 5.11300781 0.48578125 5.91351562 0.4140625 6.73828125 C0 9 0 9 -2 12 C-2.66 11.67 -3.32 11.34 -4 11 C-2.68 7.37 -1.36 3.74 0 0 Z " fill="#0F2031" transform="translate(355,536)"/>
<path d="M0 0 C4.20626034 1.50223584 5.73900021 4.28550034 8 8 C7.01 8 6.02 8 5 8 C0 2.65116279 0 2.65116279 0 0 Z " fill="#131411" transform="translate(478,532)"/>
<path d="M0 0 C1.75570312 0.17982422 1.75570312 0.17982422 3.546875 0.36328125 C4.43890625 0.47027344 5.3309375 0.57726562 6.25 0.6875 C6.25 1.0175 6.25 1.3475 6.25 1.6875 C-2.165 2.1825 -2.165 2.1825 -10.75 2.6875 C-6.19274358 -0.73044232 -5.38707547 -0.5925783 0 0 Z " fill="#2F2D27" transform="translate(828.75,488.3125)"/>
<path d="M0 0 C0.928125 0.515625 1.85625 1.03125 2.8125 1.5625 C1.8225 3.0475 1.8225 3.0475 0.8125 4.5625 C-2.07187779 3.26950306 -4.05969421 1.90308637 -6.1875 -0.4375 C-3.1875 -1.4375 -3.1875 -1.4375 0 0 Z " fill="#282722" transform="translate(843.1875,490.4375)"/>
<path d="M0 0 C0.99 0.33 1.98 0.66 3 1 C0.69 3.97 -1.62 6.94 -4 10 C-4.33 9.34 -4.66 8.68 -5 8 C-4.00390625 6.0546875 -4.00390625 6.0546875 -2.5625 3.875 C-2.08941406 3.15054687 -1.61632812 2.42609375 -1.12890625 1.6796875 C-0.75636719 1.12539063 -0.38382813 0.57109375 0 0 Z " fill="#0F2134" transform="translate(156,433)"/>
<path d="M0 0 C1.32 0 2.64 0 4 0 C4 2.64 4 5.28 4 8 C3.01 8 2.02 8 1 8 C0.67 5.36 0.34 2.72 0 0 Z " fill="#2F2E29" transform="translate(576,535)"/>
<path d="M0 0 C2.84383123 1.2748209 5.13754018 2.45137078 7 5 C6.57421875 7.1015625 6.57421875 7.1015625 6 9 C4.99712471 7.68969568 3.99777175 6.37669473 3 5.0625 C2.443125 4.33160156 1.88625 3.60070312 1.3125 2.84765625 C0 1 0 1 0 0 Z " fill="#121310" transform="translate(466,518)"/>
<path d="M0 0 C-1.32 0.33 -2.64 0.66 -4 1 C-4 1.66 -4 2.32 -4 3 C-6.31 3 -8.62 3 -11 3 C-10 1 -10 1 -6.625 -0.1875 C-3 -1 -3 -1 0 0 Z " fill="#292924" transform="translate(603,511)"/>
<path d="M0 0 C0.33 0 0.66 0 1 0 C1 4.95 1 9.9 1 15 C0.34 14.34 -0.32 13.68 -1 13 C-0.9765625 9.9609375 -0.9765625 9.9609375 -0.625 6.375 C-0.51414062 5.18648438 -0.40328125 3.99796875 -0.2890625 2.7734375 C-0.19367188 1.85820312 -0.09828125 0.94296875 0 0 Z " fill="#424640" transform="translate(401,471)"/>
<path d="M0 0 C0.33 0.66 0.66 1.32 1 2 C1.66 2.33 2.32 2.66 3 3 C2.67 3.99 2.34 4.98 2 6 C0.02 6 -1.96 6 -4 6 C-2.68 4.02 -1.36 2.04 0 0 Z " fill="#2F2F27" transform="translate(540,558)"/>
<path d="M0 0 C3.24299151 2.38957269 5.50902342 4.2047869 7 8 C4.13792848 6.71700242 1.9754912 5.469364 0 3 C0 2.01 0 1.02 0 0 Z " fill="#0C2035" transform="translate(307,555)"/>
<path d="M0 0 C5.57142857 5.14285714 5.57142857 5.14285714 6 9 C0.42857143 3.85714286 0.42857143 3.85714286 0 0 Z " fill="#141512" transform="translate(428,504)"/>
<path d="M0 0 C0.33 0.99 0.66 1.98 1 3 C-0.32 4.32 -1.64 5.64 -3 7 C-3.99 6.67 -4.98 6.34 -6 6 C-4.02 4.02 -2.04 2.04 0 0 Z " fill="#142E46" transform="translate(244,502)"/>
<path d="M0 0 C1.485 0.99 1.485 0.99 3 2 C3.6875 5.625 3.6875 5.625 4 9 C3.34 9 2.68 9 2 9 C1.34 6.03 0.68 3.06 0 0 Z " fill="#122536" transform="translate(353,467)"/>
<path d="M0 0 C0.99 0.33 1.98 0.66 3 1 C0.03 3.475 0.03 3.475 -3 6 C-3.66 5.67 -4.32 5.34 -5 5 C-3.35 3.35 -1.7 1.7 0 0 Z " fill="#24241E" transform="translate(635,557)"/>
<path d="M0 0 C0.66 0.33 1.32 0.66 2 1 C0.35 2.65 -1.3 4.3 -3 6 C-3.99 5.67 -4.98 5.34 -6 5 C-4.02 3.35 -2.04 1.7 0 0 Z " fill="#23231D" transform="translate(590,514)"/>
<path d="M0 0 C0.33 0.99 0.66 1.98 1 3 C-0.40445835 5.2636564 -2.1967913 7.0208685 -4 9 C-4.33 8.01 -4.66 7.02 -5 6 C-3.59554165 3.7363436 -1.8032087 1.9791315 0 0 Z " fill="#161512" transform="translate(483,461)"/>
<path d="M0 0 C0.33 0 0.66 0 1 0 C1 4.62 1 9.24 1 14 C0.67 14 0.34 14 0 14 C0 9.38 0 4.76 0 0 Z " fill="#434740" transform="translate(401,527)"/>
<path d="M0 0 C0.33 0 0.66 0 1 0 C1 3.3 1 6.6 1 10 C0.67 10 0.34 10 0 10 C0 6.7 0 3.4 0 0 Z " fill="#474A42" transform="translate(401,544)"/>
<path d="M0 0 C0.33 0 0.66 0 1 0 C1 2.31 1 4.62 1 7 C-1 4 -1 4 -0.625 1.8125 C-0.41875 1.214375 -0.2125 0.61625 0 0 Z " fill="#434338" transform="translate(891,540)"/>
<path d="M0 0 C0.99 0.495 0.99 0.495 2 1 C2.625 3.0625 2.625 3.0625 3 5 C2.01 4.67 1.02 4.34 0 4 C0 2.68 0 1.36 0 0 Z " fill="#424038" transform="translate(848,499)"/>
<path d="M0 0 C0.33 0 0.66 0 1 0 C1 2.31 1 4.62 1 7 C-0.0625 5.1875 -0.0625 5.1875 -1 3 C-0.67 2.01 -0.34 1.02 0 0 Z " fill="#454943" transform="translate(401,463)"/>
<path d="M0 0 C0.99 0 1.98 0 3 0 C2.67 0.66 2.34 1.32 2 2 C1.01 2.33 0.02 2.66 -1 3 C-0.67 2.01 -0.34 1.02 0 0 Z " fill="#454439" transform="translate(817,565)"/>
<path d="M0 0 C0.99 0.33 1.98 0.66 3 1 C2.67 1.99 2.34 2.98 2 4 C1.34 3.67 0.68 3.34 0 3 C0 2.01 0 1.02 0 0 Z " fill="#3F3E36" transform="translate(849,528)"/>
<path d="M0 0 C0.33 0 0.66 0 1 0 C1 2.31 1 4.62 1 7 C0.67 7 0.34 7 0 7 C0 4.69 0 2.38 0 0 Z " fill="#48483D" transform="translate(680,454)"/>
<path d="M0 0 C0.33 0 0.66 0 1 0 C1 2.31 1 4.62 1 7 C0.67 7 0.34 7 0 7 C0 4.69 0 2.38 0 0 Z " fill="#504F43" transform="translate(680,442)"/>
<path d="M0 0 C0.33 0 0.66 0 1 0 C1 1.98 1 3.96 1 6 C0.67 6 0.34 6 0 6 C0 4.02 0 2.04 0 0 Z " fill="#424237" transform="translate(891,532)"/>
<path d="M0 0 C0.33 0 0.66 0 1 0 C1 1.98 1 3.96 1 6 C0.67 6 0.34 6 0 6 C0 4.02 0 2.04 0 0 Z " fill="#365061" transform="translate(130,515)"/>
<path d="M0 0 C0.99 0.495 0.99 0.495 2 1 C1.01 2.485 1.01 2.485 0 4 C0 2.68 0 1.36 0 0 Z " fill="#43423A" transform="translate(576,528)"/>
<path d="M0 0 C1.65 0 3.3 0 5 0 C5 0.33 5 0.66 5 1 C3.35 1 1.7 1 0 1 C0 0.67 0 0.34 0 0 Z " fill="#4A483C" transform="translate(529,468)"/>
<path d="M0 0 C4 1 4 1 4 1 Z " fill="#335061" transform="translate(223,619)"/>
<path d="M0 0 C1 4 1 4 1 4 Z " fill="#46463C" transform="translate(576,544)"/>
<path d="M0 0 C4 1 4 1 4 1 Z " fill="#4B493C" transform="translate(796,468)"/>
<path d="M0 0 C4 1 4 1 4 1 Z " fill="#49483D" transform="translate(524,468)"/>
<path d="M0 0 C3 1 3 1 3 1 Z " fill="#4F4D41" transform="translate(702,566)"/>
<path d="M0 0 C3 1 3 1 3 1 Z " fill="#504D40" transform="translate(698,566)"/>
<path d="" fill="#4A473C" transform="translate(0,0)"/>
<path d="" fill="#47463A" transform="translate(0,0)"/>
<path d="M0 0 C0.33 0.66 0.66 1.32 1 2 C0.34 1.67 -0.32 1.34 -1 1 C-0.67 0.67 -0.34 0.34 0 0 Z " fill="#3E3E34" transform="translate(721,541)"/>
<path d="" fill="#414136" transform="translate(0,0)"/>
<path d="M0 0 C3 1 3 1 3 1 Z " fill="#4B493E" transform="translate(801,468)"/>
<path d="M0 0 C3 1 3 1 3 1 Z " fill="#4C4A3D" transform="translate(748,468)"/>
<path d="M0 0 C3 1 3 1 3 1 Z " fill="#4C4C40" transform="translate(824,467)"/>
<path d="" fill="#494D47" transform="translate(0,0)"/>
<path d="" fill="#4F534C" transform="translate(0,0)"/>
<path d="M0 0 C3 1 3 1 3 1 Z " fill="#325267" transform="translate(278,394)"/>
<path d="M0 0 C3 1 3 1 3 1 Z " fill="#2F4E66" transform="translate(269,392)"/>
<path d="" fill="#375365" transform="translate(0,0)"/>
<path d="" fill="#234965" transform="translate(0,0)"/>
<path d="" fill="#214565" transform="translate(0,0)"/>
<path d="" fill="#4E4E45" transform="translate(0,0)"/>
<path d="M0 0 C2 1 2 1 2 1 Z " fill="#49473B" transform="translate(766,566)"/>
<path d="M0 0 C2 1 2 1 2 1 Z " fill="#504C42" transform="translate(694,566)"/>
<path d="M0 0 C2 1 2 1 2 1 Z " fill="#504D41" transform="translate(662,566)"/>
<path d="M0 0 C2 1 2 1 2 1 Z " fill="#4E4C3E" transform="translate(651,566)"/>
<path d="M0 0 C2 1 2 1 2 1 Z " fill="#514E41" transform="translate(535,566)"/>
<path d="M0 0 C2 1 2 1 2 1 Z " fill="#4C4A3D" transform="translate(496,566)"/>
<path d="M0 0 C2 1 2 1 2 1 Z " fill="#4D4B3F" transform="translate(486,566)"/>
<path d="M0 0 C2 1 2 1 2 1 Z " fill="#4D4B3F" transform="translate(483,566)"/>
<path d="M0 0 C2 1 2 1 2 1 Z " fill="#4F4E43" transform="translate(414,566)"/>
<path d="M0 0 C2 1 2 1 2 1 Z " fill="#4F4F43" transform="translate(410,566)"/>
<path d="" fill="#224361" transform="translate(0,0)"/>
<path d="" fill="#46453A" transform="translate(0,0)"/>
<path d="" fill="#404036" transform="translate(0,0)"/>
<path d="" fill="#3F3F37" transform="translate(0,0)"/>
<path d="M0 0 C2 1 2 1 2 1 Z " fill="#3E3C34" transform="translate(722,543)"/>
<path d="" fill="#2F485B" transform="translate(0,0)"/>
<path d="" fill="#224463" transform="translate(0,0)"/>
<path d="" fill="#3F3C33" transform="translate(0,0)"/>
<path d="" fill="#354F5F" transform="translate(0,0)"/>
<path d="" fill="#3B3A33" transform="translate(0,0)"/>
<path d="" fill="#424038" transform="translate(0,0)"/>
<path d="M0 0 C2 1 2 1 2 1 Z " fill="#3E3D36" transform="translate(709,504)"/>
<path d="" fill="#434137" transform="translate(0,0)"/>
<path d="" fill="#404036" transform="translate(0,0)"/>
<path d="" fill="#414034" transform="translate(0,0)"/>
<path d="" fill="#454439" transform="translate(0,0)"/>
<path d="" fill="#424236" transform="translate(0,0)"/>
<path d="" fill="#1B4260" transform="translate(0,0)"/>
<path d="M0 0 C2 1 2 1 2 1 Z " fill="#214460" transform="translate(235,478)"/>
<path d="" fill="#47453B" transform="translate(0,0)"/>
<path d="" fill="#1E4263" transform="translate(0,0)"/>
<path d="" fill="#1D4362" transform="translate(0,0)"/>
<path d="M0 0 C2 1 2 1 2 1 Z " fill="#4B4A3D" transform="translate(790,468)"/>
<path d="M0 0 C2 1 2 1 2 1 Z " fill="#4D4A3F" transform="translate(782,468)"/>
<path d="M0 0 C2 1 2 1 2 1 Z " fill="#4D4A3E" transform="translate(758,468)"/>
<path d="M0 0 C2 1 2 1 2 1 Z " fill="#48483C" transform="translate(519,468)"/>
<path d="M0 0 C2 1 2 1 2 1 Z " fill="#4F4F42" transform="translate(615,466)"/>
<path d="" fill="#314C60" transform="translate(0,0)"/>
<path d="M0 0 C2 1 2 1 2 1 Z " fill="#234764" transform="translate(300,431)"/>
<path d="M0 0 C2 1 2 1 2 1 Z " fill="#244666" transform="translate(285,431)"/>
<path d="" fill="#345262" transform="translate(0,0)"/>
<path d="" fill="#325368" transform="translate(0,0)"/>
<path d="" fill="#325267" transform="translate(0,0)"/>
<path d="M0 0 C2 1 2 1 2 1 Z " fill="#2F5067" transform="translate(219,392)"/>
<path d="" fill="#7D7C67" transform="translate(0,0)"/>
<path d="" fill="#355162" transform="translate(0,0)"/>
<path d="" fill="#385464" transform="translate(0,0)"/>
<path d="" fill="#365265" transform="translate(0,0)"/>
<path d="" fill="#345064" transform="translate(0,0)"/>
<path d="" fill="#365164" transform="translate(0,0)"/>
<path d="" fill="#324E61" transform="translate(0,0)"/>
<path d="" fill="#355163" transform="translate(0,0)"/>
<path d="" fill="#385363" transform="translate(0,0)"/>
<path d="" fill="#324D61" transform="translate(0,0)"/>
<path d="" fill="#314E60" transform="translate(0,0)"/>
<path d="" fill="#304F61" transform="translate(0,0)"/>
<path d="" fill="#2F4C62" transform="translate(0,0)"/>
<path d="" fill="#565749" transform="translate(0,0)"/>
<path d="" fill="#565245" transform="translate(0,0)"/>
<path d="" fill="#314E64" transform="translate(0,0)"/>
<path d="" fill="#314D61" transform="translate(0,0)"/>
<path d="" fill="#365062" transform="translate(0,0)"/>
<path d="" fill="#304E63" transform="translate(0,0)"/>
<path d="" fill="#304E60" transform="translate(0,0)"/>
<path d="" fill="#234764" transform="translate(0,0)"/>
<path d="" fill="#204665" transform="translate(0,0)"/>
<path d="" fill="#204664" transform="translate(0,0)"/>
<path d="" fill="#234460" transform="translate(0,0)"/>
<path d="" fill="#48473C" transform="translate(0,0)"/>
<path d="" fill="#1D4460" transform="translate(0,0)"/>
<path d="" fill="#2F4A5D" transform="translate(0,0)"/>
<path d="" fill="#514F42" transform="translate(0,0)"/>
<path d="" fill="#4A473D" transform="translate(0,0)"/>
<path d="" fill="#4D4A3F" transform="translate(0,0)"/>
<path d="" fill="#4F4F43" transform="translate(0,0)"/>
<path d="" fill="#385061" transform="translate(0,0)"/>
<path d="" fill="#345061" transform="translate(0,0)"/>
<path d="" fill="#43443B" transform="translate(0,0)"/>
<path d="" fill="#48463B" transform="translate(0,0)"/>
<path d="" fill="#49493B" transform="translate(0,0)"/>
<path d="" fill="#4A483C" transform="translate(0,0)"/>
<path d="" fill="#4B4A3E" transform="translate(0,0)"/>
<path d="" fill="#4C4B3D" transform="translate(0,0)"/>
<path d="" fill="#504B43" transform="translate(0,0)"/>
<path d="" fill="#4D4B3E" transform="translate(0,0)"/>
<path d="" fill="#4D493C" transform="translate(0,0)"/>
<path d="" fill="#565344" transform="translate(0,0)"/>
<path d="" fill="#504E40" transform="translate(0,0)"/>
<path d="" fill="#4C4A3F" transform="translate(0,0)"/>
<path d="" fill="#4C4A3D" transform="translate(0,0)"/>
<path d="" fill="#4F4D40" transform="translate(0,0)"/>
<path d="" fill="#4F5144" transform="translate(0,0)"/>
<path d="" fill="#4C493F" transform="translate(0,0)"/>
<path d="" fill="#4C4B3E" transform="translate(0,0)"/>
<path d="" fill="#4C493D" transform="translate(0,0)"/>
<path d="" fill="#48453C" transform="translate(0,0)"/>
<path d="" fill="#364F5F" transform="translate(0,0)"/>
<path d="" fill="#4D4C3E" transform="translate(0,0)"/>
<path d="" fill="#4B4A3D" transform="translate(0,0)"/>
<path d="" fill="#515044" transform="translate(0,0)"/>
<path d="" fill="#4C493D" transform="translate(0,0)"/>
<path d="" fill="#4D4D42" transform="translate(0,0)"/>
<path d="" fill="#444337" transform="translate(0,0)"/>
<path d="" fill="#48453B" transform="translate(0,0)"/>
<path d="" fill="#49493E" transform="translate(0,0)"/>
<path d="" fill="#424439" transform="translate(0,0)"/>
<path d="" fill="#45443B" transform="translate(0,0)"/>
<path d="" fill="#444239" transform="translate(0,0)"/>
<path d="" fill="#214564" transform="translate(0,0)"/>
<path d="" fill="#444339" transform="translate(0,0)"/>
<path d="" fill="#424136" transform="translate(0,0)"/>
<path d="" fill="#484639" transform="translate(0,0)"/>
<path d="" fill="#424139" transform="translate(0,0)"/>
<path d="" fill="#414137" transform="translate(0,0)"/>
<path d="" fill="#45453A" transform="translate(0,0)"/>
<path d="" fill="#46463B" transform="translate(0,0)"/>
<path d="" fill="#413E39" transform="translate(0,0)"/>
<path d="" fill="#414237" transform="translate(0,0)"/>
<path d="" fill="#413F37" transform="translate(0,0)"/>
<path d="" fill="#49483D" transform="translate(0,0)"/>
<path d="" fill="#224360" transform="translate(0,0)"/>
<path d="" fill="#3C3C33" transform="translate(0,0)"/>
<path d="" fill="#414139" transform="translate(0,0)"/>
<path d="" fill="#214461" transform="translate(0,0)"/>
<path d="" fill="#3F3D36" transform="translate(0,0)"/>
<path d="" fill="#1D4262" transform="translate(0,0)"/>
<path d="" fill="#403E35" transform="translate(0,0)"/>
<path d="" fill="#403E36" transform="translate(0,0)"/>
<path d="" fill="#454339" transform="translate(0,0)"/>
<path d="" fill="#413E36" transform="translate(0,0)"/>
<path d="" fill="#214261" transform="translate(0,0)"/>
<path d="" fill="#414138" transform="translate(0,0)"/>
<path d="" fill="#3E3F36" transform="translate(0,0)"/>
<path d="" fill="#3E4137" transform="translate(0,0)"/>
<path d="" fill="#404036" transform="translate(0,0)"/>
<path d="" fill="#3D3E35" transform="translate(0,0)"/>
<path d="" fill="#403F37" transform="translate(0,0)"/>
<path d="" fill="#3E3B35" transform="translate(0,0)"/>
<path d="" fill="#3D3D34" transform="translate(0,0)"/>
<path d="" fill="#3F4035" transform="translate(0,0)"/>
<path d="" fill="#414036" transform="translate(0,0)"/>
<path d="" fill="#3F3E34" transform="translate(0,0)"/>
<path d="" fill="#3F3E35" transform="translate(0,0)"/>
<path d="" fill="#3A3A33" transform="translate(0,0)"/>
<path d="" fill="#2F4759" transform="translate(0,0)"/>
<path d="" fill="#404037" transform="translate(0,0)"/>
<path d="" fill="#3C3A31" transform="translate(0,0)"/>
<path d="" fill="#3C3C32" transform="translate(0,0)"/>
<path d="" fill="#3D3C34" transform="translate(0,0)"/>
<path d="" fill="#403F37" transform="translate(0,0)"/>
<path d="" fill="#403E35" transform="translate(0,0)"/>
<path d="" fill="#414037" transform="translate(0,0)"/>
<path d="" fill="#3B3932" transform="translate(0,0)"/>
<path d="" fill="#413F38" transform="translate(0,0)"/>
<path d="" fill="#403E37" transform="translate(0,0)"/>
<path d="" fill="#424039" transform="translate(0,0)"/>
<path d="" fill="#1F4360" transform="translate(0,0)"/>
<path d="" fill="#3A3930" transform="translate(0,0)"/>
<path d="" fill="#3D3E34" transform="translate(0,0)"/>
<path d="" fill="#3C3B34" transform="translate(0,0)"/>
<path d="" fill="#214563" transform="translate(0,0)"/>
<path d="" fill="#414136" transform="translate(0,0)"/>
<path d="" fill="#3A3A31" transform="translate(0,0)"/>
<path d="" fill="#355163" transform="translate(0,0)"/>
<path d="" fill="#3E3C36" transform="translate(0,0)"/>
<path d="" fill="#3C3A31" transform="translate(0,0)"/>
<path d="" fill="#224460" transform="translate(0,0)"/>
<path d="" fill="#424137" transform="translate(0,0)"/>
<path d="" fill="#414137" transform="translate(0,0)"/>
<path d="" fill="#424237" transform="translate(0,0)"/>
<path d="" fill="#434439" transform="translate(0,0)"/>
<path d="" fill="#454439" transform="translate(0,0)"/>
<path d="" fill="#42423B" transform="translate(0,0)"/>
<path d="" fill="#204460" transform="translate(0,0)"/>
<path d="" fill="#3D3B34" transform="translate(0,0)"/>
<path d="" fill="#45463A" transform="translate(0,0)"/>
<path d="" fill="#3C3B33" transform="translate(0,0)"/>
<path d="" fill="#434337" transform="translate(0,0)"/>
<path d="" fill="#224765" transform="translate(0,0)"/>
<path d="" fill="#404036" transform="translate(0,0)"/>
<path d="" fill="#434337" transform="translate(0,0)"/>
<path d="" fill="#414338" transform="translate(0,0)"/>
<path d="" fill="#414238" transform="translate(0,0)"/>
<path d="" fill="#3E3E33" transform="translate(0,0)"/>
<path d="" fill="#403F35" transform="translate(0,0)"/>
<path d="" fill="#393931" transform="translate(0,0)"/>
<path d="" fill="#404037" transform="translate(0,0)"/>
<path d="" fill="#3F3F34" transform="translate(0,0)"/>
<path d="" fill="#424238" transform="translate(0,0)"/>
<path d="" fill="#424039" transform="translate(0,0)"/>
<path d="" fill="#3C3D34" transform="translate(0,0)"/>
<path d="" fill="#1E4163" transform="translate(0,0)"/>
<path d="" fill="#413F36" transform="translate(0,0)"/>
<path d="" fill="#25445E" transform="translate(0,0)"/>
<path d="" fill="#424238" transform="translate(0,0)"/>
<path d="" fill="#434138" transform="translate(0,0)"/>
<path d="" fill="#3C3A30" transform="translate(0,0)"/>
<path d="" fill="#3A3A33" transform="translate(0,0)"/>
<path d="" fill="#214461" transform="translate(0,0)"/>
<path d="" fill="#1E4462" transform="translate(0,0)"/>
<path d="" fill="#3E3D36" transform="translate(0,0)"/>
<path d="" fill="#46433B" transform="translate(0,0)"/>
<path d="" fill="#414137" transform="translate(0,0)"/>
<path d="" fill="#365264" transform="translate(0,0)"/>
<path d="" fill="#434136" transform="translate(0,0)"/>
<path d="" fill="#403F36" transform="translate(0,0)"/>
<path d="" fill="#404238" transform="translate(0,0)"/>
<path d="" fill="#43443A" transform="translate(0,0)"/>
<path d="" fill="#264A64" transform="translate(0,0)"/>
<path d="" fill="#414039" transform="translate(0,0)"/>
<path d="" fill="#414038" transform="translate(0,0)"/>
<path d="" fill="#355264" transform="translate(0,0)"/>
<path d="" fill="#414134" transform="translate(0,0)"/>
<path d="" fill="#414137" transform="translate(0,0)"/>
<path d="" fill="#3C3A31" transform="translate(0,0)"/>
<path d="" fill="#413F35" transform="translate(0,0)"/>
<path d="" fill="#444338" transform="translate(0,0)"/>
<path d="" fill="#454339" transform="translate(0,0)"/>
<path d="" fill="#444138" transform="translate(0,0)"/>
<path d="" fill="#414137" transform="translate(0,0)"/>
<path d="" fill="#3A3A32" transform="translate(0,0)"/>
<path d="" fill="#404037" transform="translate(0,0)"/>
<path d="" fill="#404035" transform="translate(0,0)"/>
<path d="" fill="#45433A" transform="translate(0,0)"/>
<path d="" fill="#3C3E33" transform="translate(0,0)"/>
<path d="" fill="#3A3A32" transform="translate(0,0)"/>
<path d="" fill="#414036" transform="translate(0,0)"/>
<path d="" fill="#3E3B34" transform="translate(0,0)"/>
<path d="" fill="#424238" transform="translate(0,0)"/>
<path d="" fill="#3D3C33" transform="translate(0,0)"/>
<path d="" fill="#385362" transform="translate(0,0)"/>
<path d="" fill="#403F35" transform="translate(0,0)"/>
<path d="" fill="#385363" transform="translate(0,0)"/>
<path d="" fill="#3E4036" transform="translate(0,0)"/>
<path d="" fill="#3C3B33" transform="translate(0,0)"/>
<path d="" fill="#454337" transform="translate(0,0)"/>
<path d="" fill="#454639" transform="translate(0,0)"/>
<path d="" fill="#444437" transform="translate(0,0)"/>
<path d="" fill="#45443C" transform="translate(0,0)"/>
<path d="" fill="#46433B" transform="translate(0,0)"/>
<path d="" fill="#365262" transform="translate(0,0)"/>
<path d="" fill="#44443A" transform="translate(0,0)"/>
<path d="" fill="#3F3E35" transform="translate(0,0)"/>
<path d="" fill="#314A5F" transform="translate(0,0)"/>
<path d="" fill="#454338" transform="translate(0,0)"/>
<path d="" fill="#4A4B3B" transform="translate(0,0)"/>
<path d="" fill="#424136" transform="translate(0,0)"/>
<path d="" fill="#3D3C34" transform="translate(0,0)"/>
<path d="" fill="#4B483E" transform="translate(0,0)"/>
<path d="" fill="#49493B" transform="translate(0,0)"/>
<path d="" fill="#46463C" transform="translate(0,0)"/>
<path d="" fill="#224864" transform="translate(0,0)"/>
<path d="" fill="#424236" transform="translate(0,0)"/>
<path d="" fill="#4B4A3C" transform="translate(0,0)"/>
<path d="" fill="#32475D" transform="translate(0,0)"/>
<path d="" fill="#4F4D41" transform="translate(0,0)"/>
<path d="" fill="#484739" transform="translate(0,0)"/>
<path d="" fill="#214465" transform="translate(0,0)"/>
<path d="" fill="#4A473E" transform="translate(0,0)"/>
<path d="" fill="#4C4D3F" transform="translate(0,0)"/>
<path d="" fill="#4E4B3F" transform="translate(0,0)"/>
<path d="" fill="#4B4A3D" transform="translate(0,0)"/>
<path d="" fill="#4C4A3D" transform="translate(0,0)"/>
<path d="" fill="#4E4A3E" transform="translate(0,0)"/>
<path d="" fill="#4D4B3E" transform="translate(0,0)"/>
<path d="" fill="#4B4B3E" transform="translate(0,0)"/>
<path d="" fill="#4C4D40" transform="translate(0,0)"/>
<path d="" fill="#4C4C40" transform="translate(0,0)"/>
<path d="" fill="#4B4A3D" transform="translate(0,0)"/>
<path d="" fill="#4A493E" transform="translate(0,0)"/>
<path d="" fill="#514F44" transform="translate(0,0)"/>
<path d="" fill="#515144" transform="translate(0,0)"/>
<path d="" fill="#4F5042" transform="translate(0,0)"/>
<path d="" fill="#4F5043" transform="translate(0,0)"/>
<path d="" fill="#214363" transform="translate(0,0)"/>
<path d="" fill="#315063" transform="translate(0,0)"/>
<path d="" fill="#504F42" transform="translate(0,0)"/>
<path d="" fill="#37505E" transform="translate(0,0)"/>
<path d="" fill="#47453B" transform="translate(0,0)"/>
<path d="" fill="#49483E" transform="translate(0,0)"/>
<path d="" fill="#3D4038" transform="translate(0,0)"/>
<path d="" fill="#4F4D3F" transform="translate(0,0)"/>
<path d="" fill="#3D3D36" transform="translate(0,0)"/>
<path d="" fill="#334F63" transform="translate(0,0)"/>
<path d="" fill="#204765" transform="translate(0,0)"/>
<path d="" fill="#365362" transform="translate(0,0)"/>
<path d="" fill="#474C45" transform="translate(0,0)"/>
<path d="" fill="#375163" transform="translate(0,0)"/>
<path d="" fill="#4B493D" transform="translate(0,0)"/>
<path d="" fill="#45463B" transform="translate(0,0)"/>
<path d="" fill="#4A483E" transform="translate(0,0)"/>
<path d="" fill="#4D4D41" transform="translate(0,0)"/>
<path d="" fill="#1D4562" transform="translate(0,0)"/>
<path d="" fill="#4D4D41" transform="translate(0,0)"/>
<path d="" fill="#3E3E36" transform="translate(0,0)"/>
<path d="" fill="#404037" transform="translate(0,0)"/>
<path d="" fill="#324F61" transform="translate(0,0)"/>
<path d="" fill="#365061" transform="translate(0,0)"/>
<path d="" fill="#4D5249" transform="translate(0,0)"/>
<path d="" fill="#4C4D41" transform="translate(0,0)"/>
<path d="" fill="#545447" transform="translate(0,0)"/>
<path d="" fill="#50564E" transform="translate(0,0)"/>
<path d="" fill="#4D4D41" transform="translate(0,0)"/>
<path d="" fill="#575547" transform="translate(0,0)"/>
<path d="" fill="#555545" transform="translate(0,0)"/>
<path d="" fill="#515043" transform="translate(0,0)"/>
<path d="" fill="#4F4F42" transform="translate(0,0)"/>
<path d="" fill="#4D4E43" transform="translate(0,0)"/>
<path d="" fill="#4F5043" transform="translate(0,0)"/>
<path d="" fill="#555445" transform="translate(0,0)"/>
<path d="" fill="#53544A" transform="translate(0,0)"/>
<path d="" fill="#224864" transform="translate(0,0)"/>
<path d="" fill="#1E4361" transform="translate(0,0)"/>
<path d="" fill="#59584A" transform="translate(0,0)"/>
<path d="" fill="#555647" transform="translate(0,0)"/>
<path d="" fill="#234767" transform="translate(0,0)"/>
<path d="" fill="#585749" transform="translate(0,0)"/>
<path d="" fill="#264A66" transform="translate(0,0)"/>
<path d="" fill="#244863" transform="translate(0,0)"/>
<path d="" fill="#244B6A" transform="translate(0,0)"/>
<path d="" fill="#214563" transform="translate(0,0)"/>
<path d="" fill="#224666" transform="translate(0,0)"/>
<path d="" fill="#5B5A4C" transform="translate(0,0)"/>
<path d="" fill="#5C5A4C" transform="translate(0,0)"/>
<path d="" fill="#335469" transform="translate(0,0)"/>
<path d="" fill="#345363" transform="translate(0,0)"/>
<path d="" fill="#315165" transform="translate(0,0)"/>
<path d="" fill="#305065" transform="translate(0,0)"/>
<path d="" fill="#325268" transform="translate(0,0)"/>
<path d="" fill="#325369" transform="translate(0,0)"/>
<path d="" fill="#375567" transform="translate(0,0)"/>
</svg>
